<?xml version="1.0" encoding="utf-8"?>
<!-- Generator: Adobe Illustrator 20.1.0, SVG Export Plug-In . SVG Version: 6.00 Build 0)  -->
<svg version="1.1" id="Layer_1" xmlns="http://www.w3.org/2000/svg" xmlns:xlink="http://www.w3.org/1999/xlink" x="0px" y="0px"
	 viewBox="0 0 734 665" style="enable-background:new 0 0 734 665;" xml:space="preserve">
<style type="text/css">
	.st0{fill:none;stroke:#000000;stroke-miterlimit:10;}
</style>
<g>
	<path class="st0" d="M1,253c0-63,0-126,0-189c244.7,0,489.3,0,734,0c0,187.7,0,375.3,0,563c-21.1-16.4-43.7-29.7-69.5-37.4
		c-17.5-5.2-29.6-16.6-37.7-32.7c-4.7-9.4-9.7-18.6-15.4-27.4c-19.3-29.9-44.6-52.5-79.2-63.1c-27-8.3-54.8-8.9-82.6-5.8
		c-21.1,2.4-40.3,10-56.9,23.5c-2.6,2.1-6,3.3-9.1,4.7c-4.9,2.3-11.2,3.1-14.6,6.7c-13.3,13.9-29.1,18.5-47.7,15.7
		c-4.7-0.7-9.6-0.9-14.3-0.5c-8.1,0.7-13.9,5.8-19.1,11.4c-14.2-9.3-22.3-34.9-14.9-52.3c2.7-6.3,4.3-13.3,5-20.2
		c1.8-18.9,2.1-37.9,4.2-56.7c1.9-17.1,6.1-33.8,14.6-49c2.9-5.1,4.4-10.2,4.3-16.1c-0.2-10.5,4.4-16.8,14.5-20.1
		c4.2-1.4,8.6-2.3,13.1-3.4c-6.6-1.7-13.1-2.3-19.1,1c-15.3,8.4-31.4,8.8-48,5.1c-13.1-2.9-26.2-6.4-39.5-8.4
		c-25.2-3.8-50.5-2.1-75.7,1c-11.7,1.5-23.3,3.3-34.2,8.1c0,3.4,1.7,4.2,4.5,3.5c3.1-0.8,6.2-1.5,9.2-2.3c25.5-6.7,51.4-10,77.7-6.5
		c23.4,3.1,46.6,7.7,70,11.3c7.3,1.1,14.7,1.4,22.1,2.1c1.3,8.2-5.8,14.7-20.2,19.1c-1.3-2.7-2.6-5.5-3.8-8.2
		c-0.4,0.1-0.8,0.1-1.1,0.2c-0.6,5.1-1.2,10.3-1.9,16c6.9,0,13,0,20,0c-1.5,2.8-2.4,4.9-3.6,6.8c-3.9,5.9-4.7,12.3-5,19.3
		c-0.3,8.3-2.2,16.8-4.7,24.8c-2.7,8.7-3.3,8.7-12.3,8.4c-5-0.2-7.5,2.1-9.3,6.4c10.5,2.4,10.6,2.4,11.2,13.6
		c1,19.6-0.9,38.9-5.5,58c-2,8.3-4.3,16.4-6.6,25c-4-6.3-7.5-11.7-11.4-17.7c-7.2,8.7-15.8,12.2-25.5,11.8
		c-8.7-0.4-17.4-2.1-26.1-3.2c-1.4-0.2-3.2-0.8-4.2-0.2c-4.2,2.7-8.5,5.4-12,8.8c-4.4,4.3-4,9.3,0.1,14.3c5.2,6.3,7.1,6.7,13.6,3
		c3.9-2.3,7.6-5.1,11.7-6.6c5.8-2.2,11.9-4.3,18.1-5.1c11.4-1.4,23.2,2.9,35.1-4.1c-4,12.1-7.1,23-13.9,32.2
		c-6.5,8.9-15.2,13.5-26.2,14.3c-19.3,1.4-37.3-3.5-54.9-10.6c-16.8-6.8-29.3-17.6-33.3-36.2c-0.2-1.1-1.7-2-3.2-3.7
		c-0.5,3.2-0.7,5-1,6.8c-3.5-4.5-6.3-9.1-7.8-14.1c-3.3-11.2-10.1-19-20.1-24.9c-4.5-2.7-10.3-6.3-10.8-11.6
		c-0.9-9.1-0.4-18.6,1-27.7c1.2-7.5,7.6-11.3,14.2-10.5c9.7,1.1,15.3,6,16,14.2c0.6,7.5,1.2,14.9,1.9,22.4c0.1,1.1,0.6,2.2,0.9,3.3
		c0.4-0.1,0.9-0.1,1.3-0.2c1.7-20.1,3.4-40.2,5.1-60.7c-3.2-0.8-6.4-1-8.9-2.3c-2.6-1.3-4.8-3.7-6.9-5.8c-1.9-1.9-3.3-4.5-5.4-6
		c-7.1-4.9-14.4-9.3-21.8-14c3.8-7.8,10.5-9.7,17.5-10.9c21.7-3.5,43.4-6.9,65.1-10.2c11-1.7,21.9-3.4,30.5-11.9c-2,0-3.8,0-5.6,0
		c1.6-3,3.8-5.9,4.8-9.1c2.9-8.6,6.7-12,15.6-13c4.2-0.5,8.5-1.1,12.8-1.6c-0.1-1.3-0.1-2.2-0.2-3c-0.1-0.8-0.3-1.5-0.4-2.2
		c-14-0.6-26.5,1.5-36.7,12.3c-3.5,3.7-9.4,4.9-14.2,7.4c-1.1,0.6-1.8,1.9-2.7,2.9c0.2,0.3,0.4,0.5,0.7,0.8c-4.3,1.2-8.5,2.4-13,3.7
		c0.1,2,0.3,3.5,0.4,5.4c10.5-0.9,20.5-1.8,30.6-2.6c-8,2.5-16,5.3-24.2,7.3c-10,2.4-20.1,4.1-30.2,6.1c6-3.7,7.3-9.3,8.4-16
		c-12.9,6.3-24.4,5.2-34.5-3.9c-3.5-3.1-7.2-4-11.5-3.1c-5.2,1-10.3,2.2-15.4,3.4c0-5.5,0-11,0-16.8c3,1.9,5.5,3.4,8.5,5.3
		c-0.7-7.6-1.4-14.5-2.1-21.8c-12.3,10.9-16.4,25.3-19.4,40c-0.5,2.3,1.7,6.3,3.8,7.6c4.3,2.7,6.2,6.2,6.6,12c-3.3-4.2-6-7.6-8.7-11
		c-0.6,0.3-1.2,0.6-1.9,0.9c0.9,2.7,1.4,5.7,2.9,8.1c3.7,6.3,4.3,10.4-0.4,15c-7,6.9-10.3,14.4-6,23.8c-5.5,2.3-8.2,1-8.4-4.9
		c-0.1-1.6-2.2-3.2-3.3-4.7c-0.4,0.2-0.7,0.5-1.1,0.7c0.7,4.6,1.9,9.2,1.8,13.8c0,2.2-2.1,6.1-3.8,6.3c-7.1,1.1-12.7-5.5-10.4-12.4
		c1.1-3.4,3.7-6.7,6.3-9.2c2.8-2.8,6.4-4.8,9.7-6.9c4.7-3,10.1-5.5,5.9-12.8c2.5-0.7,4.3-1.3,6.9-2c-2.9-0.6-5-1.1-7.2-1.6
		c-1.6-7.3-3.1-14.6-4.7-22c-2.2,0.6-3.8,1-5.6,1.5c0,5.1,0,10,0,15c-9.2-1.8-9.9-1.8-11.1,1.8c-0.5,1.4,0.2,3.2,0.5,5.8
		c-3.9,4.6-8.7,10.3-13.4,15.8c-0.1-1.8-0.2-4.1-0.4-7.7c-2,3.6-3.5,6.1-4.9,8.6c-0.6-0.2-1.2-0.4-1.8-0.5
		c2.5-10.7,4.4-21.6,7.9-31.9c1.4-4,5.8-8.2,9.8-9.9c15.3-6.7,26.1-17.7,33.5-32.2c7.6-14.8,19.8-23.9,35-29.5
		c4.2-1.5,8.8-2.1,13.2-3.1c0.2,0.4,0.3,0.9,0.5,1.3c-2.8,2.5-5.7,4.9-8.4,7.5c-1,1-2.4,2.6-2.2,3.6c0.9,4.4-1.7,6.8-4.4,9.4
		c-3.5,3.4-3.9,7.2-1,11.2c1.6,2.1,3.3,4.1,5.2,6.4c1.5-1.3,2.7-2.3,4.5-3.9c-1.8-1.5-3.4-2.5-4.5-3.9c-0.7-1-1.2-3-0.6-3.8
		c4-6.3,7.8-12.8,12.7-18.4c7.9-9,9-17.3,1.6-28.7c0,4.7,0,8.6,0,12.6c-20.6,2.7-36.7,13.4-53.4,26.3c2.1-8.3,3.9-15.1,6-23.2
		c-5.3,3.6-9.6,6.5-15,10.2c10-20.2,29-25.7,46.1-34.6c1.3,3.6,2.3,6.6,3.3,9.6c1,2.9,2,5.9,3,8.8c0.6,0,1.2-0.1,1.8-0.1
		c0.1-2.4,0.7-4.9,0.3-7.1c-1-5.4-3-10.6-3.9-16c-1.4-8.4,4.2-17.4,12.1-20c-2,7.2-4,14.2-5.9,21.1c3.1-2.7,5.1-6.1,7.7-8.8
		c10.6-10.6,19.5-23.4,36.1-25.5c0.2,0,0.3-0.5,0.4-0.9c-7.2-5.2-15.2-5.8-24.1-3.7c9.8-7.7,20.8-7,28.8,1.7
		c-7,10.6-14,21.2-21.3,32.2c-2.1-2.9-3.9-5.3-5.7-7.9c-1.4,1.1-2.4,1.9-3.7,2.8c3.5,4.5,6.9,8.7,10.8,13.8c3.6-4.4,7.3-8,10-12.3
		c9.3-14.8,18.2-29.8,27.5-44.7c2.7-4.3,6.5-8,9.1-12.3c4.7-8,8.6-16.4,13.4-24.3c10-16.9,20.4-33.5,30.6-50.3
		c7.5-12.3,15-24.7,22.6-37.3c-1.3-0.9-2.4-1.6-3.8-2.5c-16.7,26.3-33.3,52.3-50.1,78.6c-11.7-6.7-23.8-7.8-36.6-5.5
		c-4.2,0.8-8.6,1.2-12.9,0.7c-5.4-0.6-9.8,0.8-13.9,4.1c-2.1,1.7-4.2,3.3-6.3,4.9c-12.5,8.9-24.7,18.2-37.5,26.4
		c-9.1,5.8-12,3-11.1-6.6c0-0.2-0.4-0.4-1.3-1.3c-2.1,4.2-3.8,8.3-6,12c-1.4,2.4-3.2,5-5.6,6.2c-6.9,3.6-12.2,8.7-16.3,15.1
		c-1.9,3-3.7,6.2-5.6,9.4c-1-0.6-2.3-0.9-2.7-1.7c-2.2-4.7-4.3-9.5-6.9-15.4c-2.1,13.2-4,25.4-5.9,37.6c-9.5-1.3-11.5-3.4-11.8-11.7
		c-0.1-1.8,0.1-3.7,0.4-5.5c1-6.5,2-13.1,3.2-21c-1.3,2.8-2.2,4.3-2.7,5.8c-4.3,12.9-8.3,26-13,38.8C7,242.5,3.7,247.6,1,253z
		 M155.6,475.7c5,2.5,9.7,4.4,13.8,7.1c9.3,6.2,19.3,8.6,30.4,6.9c5.1-0.8,9.9,0.1,14.2,3.4c1.2,0.9,3.6,1.3,5,0.8
		c7.6-2.4,15.1-5.2,22.8-7.9c-6.8-8.7-7.8-18.1-6.4-28.8c8.9,9,9.3,20.4,12.2,31c0.3-9.4-0.1-18.6-1.1-27.7
		c-1.4-12.4-3.1-24.8,1.1-37.1c3-8.8-0.5-13.4-9.7-13.5c-8.3-0.1-16.7-0.2-25-0.7c-21.6-1.2-34.5,6.1-42.3,25.3
		C165.1,447.9,160.6,461.6,155.6,475.7z M395.5,209.7c-30,23.5-59.9,46.9-89.6,70.2c2.1,4.2,2.3,4.7,5.5,3.2c4.3-2,8.5-4.5,12.1-7.6
		c8.2-7.1,15.6-15,23.9-21.9c16.5-13.5,33.4-26.5,50.1-39.8c0.5-0.4,0.8-0.9,1.4-1.5C397.6,211.4,396.6,210.6,395.5,209.7z
		 M194,376.9c-4-5.1-3.9-7.4,0.2-12c3.4-3.8,6.8-7.7,10.2-11.6c-0.5-0.4-1-0.9-1.5-1.3c-4.3,4.1-9,7.7-12.8,12.2
		c-7.4,8.8-4.6,17.7,6.9,21.8c4.2-7.6,11.8-10.8,20.1-13.3c-1.3-2.6-2.3-4.6-3.5-6.9C206.8,369.6,200.4,373.3,194,376.9z
		 M483.6,139.1c-12.6,10-24.9,19.8-37.5,29.8c1,1.5,1.7,2.7,2.7,4.2c12.7-10.2,25.1-20.2,37.8-30.3
		C485.5,141.5,484.6,140.3,483.6,139.1z M238.3,374.9c-2.4-4.5-4.4-8.2-6.4-12c-3.7,2.6-3.5,5.5,0.8,21.2c10.2-2.3,12.5-4.9,12.8-15
		c-1.4-0.4-2.8-0.7-4.4-1.2C240.1,370.3,239.3,372.3,238.3,374.9z M324.7,293.8c3.5-1.2,6.4-2.1,9.7-3.2c-1.6-4.5,0.7-6.2,4.1-7.9
		c4.4-2.2,8.4-5.1,12.7-7.9c-1-1.4-1.7-2.4-2.5-3.6c-8.9,5.6-17.5,11.1-26.2,16.6C323.2,290,323.9,291.6,324.7,293.8z M277,357.8
		c-12.5-4.5-23.9-8.6-35.3-12.7c-0.2,0.5-0.3,0.9-0.5,1.4C256,359.3,264.9,362.4,277,357.8z M236.5,343.6
		c-4.2-10.3-10.5-18.5-19.7-14.1c6.3,16.3,6.9,17.1,11,16.5c-0.3-2.2-0.6-4.4-1-7.2C230.4,340.5,233.3,342,236.5,343.6z
		 M228.1,322.2c2.5,7.4,7.2,10.8,12.8,9.6c7.3-1.6,11.2-5,10.5-9.6C243.8,322.2,236.2,322.2,228.1,322.2z"/>
	<path class="st0" d="M1,627c0-2.7,0-5.3,0-8c0.9-0.9,1.9-1.8,2.7-2.9c20-25.2,33.5-53.9,44.1-84c1.2-3.5,1.3-7.6,0.8-11.3
		c-3.7-26.9-7.6-53.7-11.7-80.5c-0.3-2-1.7-4.4-3.4-5.6c-6.3-4.6-10.7-10.6-12.5-18.1c-2.2-9.2-3.6-18.6-5.4-27.9
		c0-0.2,0.3-0.5,0.4-0.8c1.4-0.3,2.7-0.6,4.1-1c0.2,2.3,0.4,4.3,0.8,7.4c1.8-3.2,3.1-5.4,4.8-8.3c0.2,3,0.3,5,0.4,7
		c6.9-11.9,11.5-26,29.6-23c1.5,5.7,1.4,5.6-3.4,9.1c-5,3.6-10.4,6.7-14.7,11c-8.4,8.4-5.7,18.6,5.4,22.2c5,1.6,7.9-0.2,8.9-5.3
		c0.2-1.3,0.1-2.7,0.2-4c0-0.2,0.3-0.5,0.6-0.8c1,0.4,2,0.8,3.8,1.5c-2.5,4.8-4.1,10.2-7.5,13.6c-3.4,3.4-8.7,5-12.7,7.1
		c8.4,5.2,23.1,4.7,27.9-8.3c2-5.3,4.1-10.5,5.8-15.9c2.5-7.9,4.7-15.8,7.1-24.2c7.3,4.6,14.1,9,21,13.3c3.1,1.9,5.6,4,7.4,7.6
		c1.3,2.7,5,4.4,8,5.9c1.9,1,4.4,1.1,6.9,1.7c-0.6,7.5-1.2,14.6-1.8,21.8c-0.6,7-1.2,14-1.8,21c-1-3.3-1.2-6.6-1.5-9.8
		c-0.8-8.8-6.8-14.2-17.3-15.6c-7.7-1-14.6,3.1-16.7,11.1c-3.3,12.6-3.6,25.3,0.8,37c2,0.5,3.5,0.5,4.5,1.1c3.3,2.2,6.3,4.8,9.6,7.1
		c6.9,4.7,11.2,10.9,14.2,18.7c2.7,7,6.9,13.5,10.5,20.2c0.2,0.3,0.7,0.4,1.3,0.8c0.5-1.6,0.9-2.9,1.4-4.5
		c7.4,18.4,15.5,26.6,33.3,34.1c4.6,1.9,9.2,3.7,13.8,5.5c-12.7-1.4-20.5,4.4-23.1,17.2c5.4-3.3,10.6-6.5,15.7-9.7
		c0.2,0.4,0.5,0.8,0.7,1.2c-4.5,3.9-9,7.7-14.9,12.8c3.6,0.5,5.7,0.9,8,1.2c-2.4,2.7-5.1,5.7-8.6,9.6c5.1-1.1,8.6-1.8,12.8-2.7
		c-1.6,3.5-2.9,6.2-4.2,8.9c0.3,0.2,0.6,0.4,0.8,0.5c3.8-2.4,7.7-4.9,11.5-7.3c0.2,0.2,0.4,0.5,0.6,0.7c-3,3.5-6.1,7.1-10,11.6
		c9.1-1.9,15.5-5.9,19.2-12.5c4.8-8.7,10.5-16.4,18.2-22.6c0.2-0.1,0.1-0.6,0.1-1c-1.8-0.4-3.6-0.8-5.3-1.4
		c-3.2-1.1-6.3-2.3-9.5-3.5c7.8,0.9,15.5,2,23.3,2.5c19.6,1.2,33.5-7.5,40.9-25.6c4.5-11,8.3-22.5,11.7-33.9
		c7.1-23.8,10.7-48.1,9.3-73c-0.4-6.8,0.8-14.9-10-16.1c2.3-1.3,4.3-2.4,6.1-2.1c8.4,1.6,12.7-2.4,14.6-10c0.2-0.7,0.7-1.4,1-2.1
		c0.6,1.8,0.5,3.4,0.4,5c-0.9,14.9-1.9,29.9-2.8,44.8c-0.2,3.6,0.2,7.4-0.7,10.9c-3.2,12.6-6.5,25.2-10.2,37.7
		c-4.2,14.2-8.7,28.3-13.2,42.4c-3.7,11.7-10.7,19.9-23.5,22.6c-8.4,1.7-16,6.2-20.2,13.7c-7.8,13.8-14.5,28.2-21.5,42.1
		c3.8,3.5,5.8,3,8.2-0.1c4.6-6.1,9.6-11.8,14.4-17.7c0.3,0.2,0.6,0.4,0.8,0.6c-2.9,4.8-5.9,9.5-9,14.6c1.6,0.9,3,1.6,4.3,2.2
		c6.9-9.4,13.2-18.6,20.1-27.4c6.9-8.7,14-17.4,21.8-25.4c7.6-7.8,10.5-19.5,20.8-25c-0.6,4.3-1.9,8.2-2.9,12.2
		c-0.4,1.7-0.1,3.6-0.1,5.4c1.9-0.2,3.7-0.4,5.8-0.6c0.3,0.8,0.9,2,1.6,3.6c1.5-1.7,2.7-3,3.3-3.7c1.5,1.3,2.7,2.4,3.8,3.5
		c2-3.7,4.6,0.1,7.3-0.5c1.9-5.9,3.7-11.9,6-17.8c1.1-2.8,0.4-4.6-1.5-6.6c-3.4-3.5-6.6-7.2-9.8-10.9c0.3-0.3,0.5-0.5,0.8-0.8
		c1.7,1.3,3.5,2.6,5.3,4c2.4-2.2,4.6-4.3,6.9-6.3c6.3-5.4,13.5-7.6,21.8-6.2c2.5,0.4,4.9,0.8,7.4,1.1c16.9,1.7,31.9-2.2,44.5-14.5
		c3.2-3.1,7.4-5.6,11.6-7c6.4-2.1,12.1-4.7,17.5-8.9c23.5-18.2,51-22.6,79.8-21.9c-27.5,2-52.5,11.3-75.4,26.5
		c-19.2,12.7-24.5,35.3-13.3,55.6c0.2,0.4,0.7,0.6,1.1,0.9c1.2-0.7,2.3-1.4,3.3-2c0.9,1.6,1.6,2.9,2.5,4.6c3.7-2.9,7-5.4,10.6-8.2
		c0,2.2,0,3.8,0,6.1c4.2-3,8.1-5.5,11.7-8.3c10.7-8.2,22.9-10.9,36.2-10c18.2,1.1,35.9,5.2,53.3,10.5c8.5,2.6,16.8,6.7,26.8,3.5
		c-1.2,2.4-2,4-2.9,5.8c1.1,0.3,1.9,0.7,2.2,0.5c5.4-4.3,9.4,2.7,14.6,1.8c2-0.4,4.4,1.9,6.1,2.7c2.4,3.1,4.4,6.4,7.2,8.8
		c1,0.8,4-0.9,6.1-1.1c1.4-0.2,2.9,0.2,4.4,0.3c-1.2,1-2.2,2.5-3.5,3c-18.5,6-37.1,11.8-55.6,17.9c-1.5,0.5-3.6,1.9-3.7,3
		c-0.1,1.9,1.2,3.8,2,5.8c-0.1,0.1-1.4,1-1.3,1.7c0.8,7.9-0.4,16.1,4.5,23.2c6,8.8,11.8,17.7,17.9,26.5c10.5,15,25,22.9,43.4,23.9
		c6.2,0.3,12.4,1.2,18.6,1.8c-28.3,0-56.7,0-85,0c-4-4.6-7.6-9.6-12-13.8c-10.4-10.1-21.1-19.8-31.8-29.6c-1-0.9-3.1-1.4-4.2-0.9
		c-1.2,0.5-2.6,2.4-2.5,3.5c1,8.9,2.4,17.7,3.7,27.4c2.3-1.2,3.9-2,5.4-2.8c0.8,2.8,1.7,5.7,2.7,9.1c1.3-2.6,2.3-4.5,3.8-7.4
		c0.8,5.7,1.3,10.2,1.9,14.6c-28.3,0-56.7,0-85,0c0.8-1.9,1.3-4,2.4-5.7c2.2-3.3,5.3-6.1,7.2-9.5c3.6-6.7,6.7-13.7,10-20.6
		c2.5,0.7,4.6,1.4,7.4,2.2c-1.2-2.9-2-4.9-3-7.5c2.2,1.2,3.6,2,5.2,2.8c-0.9-6.1-0.9-6.1,3.4-11c1.9-2.1,3.9-4.2,5.5-6.4
		c1.2-1.7,2-3.7,3-5.6c0.7-0.1,2.6,0.3,3.1-0.4c0.6-0.9,0.2-2.7-0.2-3.9c-0.7-2-1.7-3.8-2.8-6.2c1.9,0.6,3.2,0.9,4.6,1.3
		c0-16.1-13.7-34.8-30-41.3c-16.4-6.6-29.5-1.4-36.9,14.6c-0.1,0.2-0.4,0.2-0.9,0.5c1.5-7.9,3-15.5,4.5-23.2
		c2.8-14.4,5.7-28.7,8.3-43.1c0.3-1.8-0.3-5.2-1.2-5.4c-2.1-0.6-4.7-0.1-6.9,0.6c-1.3,0.4-2.2,1.9-3.3,3
		c-13.3,14.4-36,20.1-54.4,13.5c-5.5-2-9.4-0.9-12.3,4.3c-3.1,5.7-6.2,11.5-8,17.6c-6.2,21.2-11.9,42.6-17.8,63.9
		c-0.7,2.6-1.5,5.3-2.3,7.9c-0.6-1.5-0.3-2.8-0.1-4.1c0.2-1.2,0.3-2.5,0.5-4.3c-35.5,4.3-60.4,26.9-87.2,46.9
		c1.3,0.8,2.2,1.4,4.2,2.7c-3.2-0.5-4.9-0.8-6.9-1.2c-0.6,1.6-1.2,3.1-1.9,4.7c-17.7-2.9-36.1-0.5-53.3-7.2c0.8-1.8,2.3-3.5,2.4-5.4
		c0.8-13.8,2-27.4-3.3-40.9c-12.1-31.1-29.1-60.2-38.4-92.5c-2.3-8-9.1-12.6-17.7-15.3c1.8,28.6,12.6,53.4,26.4,78.2
		c-0.3,0.7-1.1,2.7-1.9,4.9c2.4,0,4.3,0,6.8,0c-1.5,2.9-2.9,5.5-4.3,8.1c2.3,0.9,4,1.5,6,2.3c-1.6,1.3-2.7,2.2-4.7,3.9
		c3.7,2.1,6.9,4,10.3,5.9c-1.1,1.1-2.4,2.3-3.8,3.6c2.5,1.5,4.7,2.8,7.1,4.3c-1.1,1.3-1.9,2.2-2.8,3.4c2.7,1.4,5.1,2.7,7.6,4
		c-2,2.8-3.6,5-5.6,7.9c3.5,0,6,0,8,0c-2.8,10,5.4,18,4.1,27.5c-11.7-1.5-23.4-3-34.8-4.4c-0.2-8.8-8.4-10.8-12.7-16.6
		c-5.5,4.8-10.5,9.3-15.7,13.7c-0.9,0.7-2.3,0.9-3.5,1c-8.1,0.3-16.3,0.3-24.4,1c-3.3,0.3-6.5,1.9-9.8,2.9c0.1,0.6,0.3,1.3,0.4,1.9
		c5,0.5,10,1,15.1,1.5c0,0.2,0,0.3,0,0.5c-6.2,0.4-12.4,0.8-18.8,1.1c2.3-8.4,10.8-14,7.3-23.9c2.3,1.2,3.9,2,5.9,3.1
		c-0.6-3.1-1.2-5.7-1.9-8.9c2.2,1.5,3.8,2.6,6.4,4.3c-1.4-4.5-2.5-7.9-3.5-11.2c0.2-0.1,0.5-0.2,0.7-0.4c1.9,2.2,3.9,4.3,6.8,7.6
		c-0.9-5-1.6-8.5-2.4-12.3c1.9,0.9,3.3,1.7,5,2.5c0-2.9,0-5.3,0-7.9c1.7,0.4,3.1,0.7,5,1.1c-0.8-3.2-1.4-5.9-2.3-9.7
		c2.6,2,4.2,3.2,6.1,4.7c-0.4-3.1-0.7-5.4-1-8.4c1.7,0.9,2.8,1.4,4.3,2.1c-0.4-3.4-0.7-6.3-1.2-10.7c3.2,3.9,5.3,6.6,8.3,10.4
		c-1-4.4-1.7-7.4-2.4-10.4c0.5,0.2,1,0.4,1.5,0.6c3.7-3.1,3.4-8.8,6.8-13.2c6.7,17.5,13.3,34.6,19.9,51.6c0.9-1.2,0.9-2.1,0.9-3
		c-1.5-25.5-5.7-50.6-12.6-75.2c-9.9-35-20.5-69.9-30.6-104.9c-1.6-5.4-4.7-2.9-7.9-2c0.1,1.4,0.2,2.5,0.4,3.6
		c4.2,21.4,8.2,42.8,12.6,64.1c1.7,8.4,4,16.8,0.4,25c-9.1,21.1-18.1,42.2-27.8,63C21.6,603.8,12.7,616.5,1,627z M73.9,480.7
		c0.7,0.3,1.4,0.5,2.1,0.8c0.7-1.5,2-3,1.9-4.4c-0.3-3.8-1.1-7.5-1.8-11.3c-2.5-13.2-4.9-26.3-7.4-39.3c-3.8-0.6-5.3,0.5-4.5,4
		c0.3,1.3,0.6,2.6,0.8,3.9C68,449.8,70.9,465.2,73.9,480.7z M461.1,553c12.1,4.4,23.7,13.1,38.1,5
		C486.7,550.4,474.5,546.9,461.1,553z M262.8,564.9c-8.9,5.9-11.5,19.5-5.7,27.2c2,2.7,4.5,3.9,7.7,2.4c2.3-1.1,5.3-1.8,4.3-5.6
		C267,581,265,573.1,262.8,564.9z M174.2,625.4c-5.1,3.4-10.8,6.3-11,12.8c-0.1,4.4,3.2,7.2,7.5,9.4
		C171.9,639.9,173.1,632.7,174.2,625.4z"/>
	<path class="st0" d="M735,631c0,11.7,0,23.3,0,35c-37.7,0-75.3,0-113,0c-0.7-0.3-1.5-0.8-2.3-0.9c-13.2-1.4-26.4-3.2-39.7-4.1
		c-14.2-1-28.2-3.7-37.5-14.8c-10.3-12.3-19-26-27.7-39.6c-2.2-3.5-1.6-8.8-2.4-13.8c16.8,0.9,32.4,1.6,48.4,2.5
		c0.4-2.1,0.8-3.8,1.2-6.1c-16.3-1.5-31.9-3-47.5-4.4c1.1-1.2,2.2-1.8,3.4-2.1c18.1-5.8,36.1-11.6,54.2-17.2c3.2-1,4.6-2.3,3.3-5.6
		c-1.4-3.6-2.6-7.3-4-11.1c-2.3,0.5-4.5,1-6.4,1.4c0.4-2.3,0.7-4.5,1.1-7.2c-2.8,0.9-4.5,1.5-6.2,2c0.1-0.5,0.2-1,0.3-1.5
		c-2.6-0.7-5.3-1.3-9.1-2.3c-1.8-2.6-1.8-2.6-10.5-0.3c-0.4-1.2-0.7-2.3-0.7-2.3c-8.5-1-16.6-0.9-24.1-3c-17.8-5.1-35.5-10-54-12.1
		c-17.2-1.9-33.2,0.2-46.9,12c-1.2,1-2.6,1.7-4.4,2.8c0.2-2.5,0.4-4.4,0.7-7c-3,2.2-5.3,3.9-7.5,5.5c-0.6-1.9-1.2-3.5-1.9-5.9
		c-3.9,3.3-7.2,6-10.6,8.8c-0.5-0.7-1-1.2-1.2-1.7c-8-16.3-3.3-34.8,11.8-45.1c31.1-21.3,65.3-31.1,103-26.7
		c24,2.8,46,10.3,65.5,25.7c25.7,20.4,41.6,47,53.5,76.9c-4.4,1.4-5.9-1.6-7.6-4.3c-6.1-9.9-12.3-19.8-18.1-29.8
		c-6-10.2-16.8-12-26.6-16.1c0.5,2.4,1.3,4.5,2.5,6.4c9.1,14.4,15.3,29.9,17.5,46.8c0.6,4.4,2.4,6.7,6.8,6.7c1.3,0,2.6,0.4,3.9,0.6
		c32,3.8,62.9,11.8,91.4,26.9C708,613.3,721.3,622.6,735,631z M623.6,616.6c-11.1-5.2-21.5-10.1-31.9-15c-0.5,0.3-0.9,0.6-1.4,0.9
		c0.5,1.3,0.5,3.4,1.4,3.9c9.3,5.4,18.7,10.5,28.4,15.9C621.3,620.4,622.2,618.9,623.6,616.6z"/>
	<path class="st0" d="M735,631c-13.7-8.4-27-17.7-41.3-25.2c-28.6-15-59.5-23-91.4-26.9c-1.3-0.2-2.6-0.6-3.9-0.6
		c-4.5-0.1-6.3-2.4-6.8-6.7c-2.3-16.9-8.4-32.5-17.5-46.8c-1.2-1.9-2-3.9-2.5-6.4c9.8,4.1,20.6,5.9,26.6,16.1
		c5.9,10.1,12.1,19.9,18.1,29.8c1.7,2.7,3.2,5.7,7.6,4.3c-11.9-29.8-27.8-56.4-53.5-76.9c-19.5-15.5-41.5-22.9-65.5-25.7
		c-37.8-4.4-71.9,5.4-103,26.7c-15,10.3-19.7,28.7-11.8,45.1c0.3,0.6,0.7,1,1.2,1.7c3.4-2.9,6.7-5.6,10.6-8.8
		c0.8,2.3,1.3,3.9,1.9,5.9c2.1-1.6,4.4-3.3,7.5-5.5c-0.3,2.7-0.5,4.5-0.7,7c1.7-1.1,3.2-1.8,4.4-2.8c13.7-11.8,29.7-13.9,46.9-12
		c18.5,2,36.2,7,54,12.1c7.5,2.1,15.6,2,24.1,3c0,0,0.4,1.2,0.7,2.3c8.7-2.3,8.7-2.3,10.5,0.3c3.9,1,6.5,1.6,9.1,2.3
		c-0.1,0.5-0.2,1-0.3,1.5c1.7-0.6,3.4-1.1,6.2-2c-0.4,2.7-0.7,4.9-1.1,7.2c1.9-0.4,4.1-0.9,6.4-1.4c1.3,3.8,2.6,7.5,4,11.1
		c1.3,3.4,0,4.6-3.3,5.6c-18.1,5.6-36.2,11.5-54.2,17.2c-1.2,0.4-2.4,0.9-3.4,2.1c15.6,1.5,31.2,2.9,47.5,4.4
		c-0.4,2.2-0.8,4-1.2,6.1c-16-0.8-31.6-1.6-48.4-2.5c0.8,5,0.2,10.3,2.4,13.8c8.6,13.6,17.3,27.3,27.7,39.6
		c9.4,11.1,23.3,13.8,37.5,14.8c13.3,0.9,26.5,2.7,39.7,4.1c0.8,0.1,1.5,0.6,2.3,0.9c-9,0-18,0-27,0c-6.2-0.6-12.4-1.5-18.6-1.8
		c-18.4-1-32.9-8.9-43.4-23.9c-6.1-8.7-11.9-17.7-17.9-26.5c-4.9-7.1-3.7-15.3-4.5-23.2c-0.1-0.7,1.2-1.6,1.3-1.7
		c-0.7-1.9-2-3.9-2-5.8c0-1.1,2.2-2.5,3.7-3c18.5-6,37.1-11.8,55.6-17.9c1.3-0.4,2.3-2,3.5-3c-1.5-0.1-3-0.5-4.4-0.3
		c-2.1,0.2-5.1,2-6.1,1.1c-2.8-2.4-4.8-5.7-7.2-8.8c-1.7-0.8-4.1-3.1-6.1-2.7c-5.2,1-9.2-6.1-14.6-1.8c-0.3,0.2-1.1-0.2-2.2-0.5
		c0.9-1.9,1.7-3.4,2.9-5.8c-10,3.2-18.3-0.9-26.8-3.5c-17.4-5.3-35-9.4-53.3-10.5c-13.3-0.8-25.4,1.9-36.2,10
		c-3.6,2.8-7.5,5.3-11.7,8.3c0-2.3,0-3.9,0-6.1c-3.6,2.8-6.9,5.3-10.6,8.2c-0.9-1.7-1.7-3-2.5-4.6c-1.1,0.6-2.1,1.3-3.3,2
		c-0.4-0.3-0.9-0.6-1.1-0.9c-11.3-20.3-5.9-42.9,13.3-55.6c22.9-15.2,47.9-24.5,75.4-26.5c-28.8-0.7-56.3,3.7-79.8,21.9
		c-5.4,4.2-11.1,6.8-17.5,8.9c-4.2,1.4-8.4,3.9-11.6,7c-12.5,12.3-27.5,16.2-44.5,14.5c-2.5-0.3-5-0.7-7.4-1.1
		c-8.3-1.5-15.5,0.8-21.8,6.2c-2.3,1.9-4.4,4-6.9,6.3c-1.9-1.4-3.6-2.7-5.3-4c-0.3,0.3-0.5,0.5-0.8,0.8c3.3,3.6,6.4,7.3,9.8,10.9
		c1.9,2,2.6,3.8,1.5,6.6c-2.3,5.9-4,11.9-6,17.8c-2.6,0.6-5.3-3.1-7.3,0.5c-1.2-1.1-2.4-2.1-3.8-3.5c-0.6,0.7-1.8,2-3.3,3.7
		c-0.7-1.6-1.3-2.8-1.6-3.6c-2.1,0.2-3.9,0.4-5.8,0.6c0-1.8-0.4-3.7,0.1-5.4c0.9-4,2.2-7.9,2.9-12.2c-10.3,5.5-13.2,17.2-20.8,25
		c-7.8,8-14.9,16.6-21.8,25.4c-6.9,8.7-13.2,18-20.1,27.4c-1.3-0.7-2.6-1.4-4.3-2.2c3.1-5.1,6.1-9.9,9-14.6
		c-0.3-0.2-0.6-0.4-0.8-0.6c-4.8,5.9-9.9,11.6-14.4,17.7c-2.4,3.1-4.4,3.6-8.2,0.1c7-13.9,13.7-28.3,21.5-42.1
		c4.2-7.4,11.8-11.9,20.2-13.7c12.8-2.7,19.8-10.8,23.5-22.6c4.5-14.1,9-28.2,13.2-42.4c3.7-12.5,7.1-25,10.2-37.7
		c0.9-3.5,0.5-7.3,0.7-10.9c0.9-14.9,1.9-29.9,2.8-44.8c0.1-1.6,0.2-3.2-0.4-5c-0.3,0.7-0.8,1.3-1,2.1c-1.9,7.6-6.2,11.6-14.6,10
		c-1.8-0.3-3.8,0.8-6.1,2.1c10.9,1.2,9.7,9.4,10,16.1c1.4,24.9-2.2,49.2-9.3,73c-3.4,11.5-7.2,22.9-11.7,33.9
		c-7.4,18-21.3,26.8-40.9,25.6c-7.8-0.5-15.5-1.7-23.3-2.5c-4-1-8-2.1-12.1-3.1c-4.6-1.8-9.3-3.6-13.8-5.5
		c-17.8-7.4-25.8-15.6-33.3-34.1c-0.5,1.6-0.9,2.9-1.4,4.5c-0.6-0.3-1.1-0.4-1.3-0.8c-3.6-6.7-7.8-13.2-10.5-20.2
		c-3-7.8-7.4-14-14.2-18.7c-3.3-2.2-6.3-4.8-9.6-7.1c-1-0.7-2.5-0.7-4.5-1.1c-4.4-11.7-4.1-24.4-0.8-37c2.1-8,9.1-12.1,16.7-11.1
		c10.5,1.4,16.5,6.8,17.3,15.6c0.3,3.3,0.5,6.6,1.5,9.8c0.6-7,1.2-14,1.8-21c0.6-7.1,1.2-14.2,1.8-21.8c-2.5-0.6-5-0.7-6.9-1.7
		c-2.9-1.6-6.7-3.3-8-5.9c-1.8-3.6-4.3-5.7-7.4-7.6c-6.9-4.3-13.7-8.7-21-13.3c-2.4,8.4-4.6,16.3-7.1,24.2
		c-1.7,5.4-3.9,10.6-5.8,15.9c-4.8,13-19.5,13.5-27.9,8.3c4.1-2.2,9.3-3.7,12.7-7.1c3.4-3.5,5-8.8,7.5-13.6
		c-1.7-0.7-2.8-1.1-3.8-1.5c-0.3,0.4-0.6,0.6-0.6,0.8c-0.1,1.3,0.1,2.7-0.2,4c-0.9,5.1-3.9,6.9-8.9,5.3
		c-11.1-3.5-13.8-13.7-5.4-22.2c4.3-4.3,9.7-7.5,14.7-11c4.8-3.5,4.9-3.4,3.4-9.1c-18.1-3-22.7,11.1-29.6,23c-0.1-2-0.2-4-0.4-7
		c-1.7,3-3,5.1-4.8,8.3c-0.3-3.1-0.5-5.1-0.8-7.4c-1.4,0.3-2.7,0.6-4.1,1c-0.1,0.3-0.5,0.6-0.4,0.8c1.7,9.3,3.2,18.7,5.4,27.9
		c1.8,7.5,6.2,13.5,12.5,18.1c1.6,1.2,3.1,3.6,3.4,5.6c4.1,26.8,8,53.6,11.7,80.5c0.5,3.7,0.4,7.9-0.8,11.3
		c-10.6,30.1-24.1,58.8-44.1,84c-0.8,1-1.8,1.9-2.7,2.9c0-1,0-2,0-3c20.7-25.4,34.3-54.5,45-85.1c1-2.9,1.1-6.3,0.7-9.3
		c-3.7-26.7-7.6-53.3-11.7-80c-0.3-2-2-3.9-3.3-5.6c-3.4-4.4-8.3-8.2-10.4-13.1c-5.9-13.9-7.9-28.8-8.4-43.8
		c-0.3-8.4-2.2-15.9-5.2-22.1C5,357.4,3,357.7,1,358c0-9.3,0-18.7,0-28c2-6,4.2-12.3,10.1-15.3c5.1-2.5,10.9-3.6,16.4-5.2
		c7.5-2.1,15.7,1.7,23.1-2.3c1.2-0.6,2.7-0.8,4-1.1c0,1.9-0.5,3.3-1.5,3.9c-14.6,9.7-27,22.9-43.7,29.7c-1.1-2.2-2-4.1-2.9-6
		c-0.3,0-0.7,0-1,0c-0.6,6.8-1.3,13.6-1.9,20.5c0.3,0,0.6,0.1,0.9,0.1c1-1.2,1.9-2.5,3.5-4.4c2.8,9.3,5.5,17.9,7.7,25.1
		c1.2-5.6,2.4-12.8,4.4-19.8c2.1-7.2,6.7-12.5,13.8-15.5c10.6-4.4,19.1-11.5,25.5-20.9c6.8-10,11.1-21.8,21.8-29
		c-0.3-0.3-0.6-0.6-1-0.9c-5.8,4.3-11.7,8.7-18.3,13.6c2.1-8.2,3.9-15.4,5.8-22.7c-0.3-0.2-0.6-0.4-0.9-0.6
		c-4.7,3.9-9.3,7.9-14.8,12.5c4.6-19.5,18.4-28.8,34.4-36.5c-7.4-1.3-14.1-2-20.6-3.6c-6.6-1.6-13.1-3.6-19.3-6.4
		c-7.1-3.1-14-6.8-20.5-11.1c-2.6-1.7-4.4-5.2-5.4-8.2c-1.2-3.6-1.3-7.6-2-12.6c-2.7,8.9-4.6,17-7.6,24.6C8.3,244.5,4.4,250.6,1,257
		c0-1.3,0-2.7,0-4c2.7-5.4,6-10.5,8.1-16.2c4.7-12.8,8.7-25.8,13-38.8c0.5-1.6,1.4-3,2.7-5.8c-1.2,8-2.3,14.5-3.2,21
		c-0.3,1.8-0.4,3.7-0.4,5.5c0.2,8.3,2.3,10.4,11.8,11.7c1.9-12.2,3.8-24.4,5.9-37.6c2.6,5.9,4.6,10.7,6.9,15.4
		c0.4,0.7,1.6,1.1,2.7,1.7c1.9-3.2,3.7-6.4,5.6-9.4c4.1-6.5,9.4-11.5,16.3-15.1c2.3-1.2,4.1-3.8,5.6-6.2c2.3-3.8,4-7.8,6-12
		c0.9,0.9,1.3,1.1,1.3,1.3c-1,9.6,2,12.5,11.1,6.6c12.9-8.3,25.1-17.6,37.5-26.4c2.2-1.5,4.3-3.2,6.3-4.9c4.1-3.3,8.5-4.7,13.9-4.1
		c4.2,0.5,8.7,0,12.9-0.7c12.7-2.3,24.9-1.3,36.6,5.5c16.7-26.3,33.3-52.3,50.1-78.6c1.4,0.9,2.4,1.6,3.8,2.5
		c-7.6,12.6-15.1,25-22.6,37.3c-10.2,16.8-20.6,33.4-30.6,50.3c-4.7,7.9-8.6,16.4-13.4,24.3c-2.6,4.4-6.4,8-9.1,12.3
		c-9.3,14.8-18.1,29.9-27.5,44.7c-2.7,4.3-6.4,7.9-10,12.3c-4-5-7.3-9.3-10.8-13.8c1.3-1,2.3-1.7,3.7-2.8c1.9,2.6,3.7,5,5.7,7.9
		c7.3-11,14.3-21.6,21.3-32.2c-7.9-8.6-19-9.4-28.8-1.7c8.9-2.1,16.9-1.5,24.1,3.7c-0.2,0.4-0.3,0.9-0.4,0.9
		c-16.6,2.1-25.5,15-36.1,25.5c-2.7,2.7-4.6,6-7.7,8.8c1.9-7,3.9-13.9,5.9-21.1c-7.9,2.5-13.5,11.6-12.1,20c0.9,5.4,2.8,10.6,3.9,16
		c0.4,2.3-0.2,4.8-0.3,7.1c-0.6,0-1.2,0.1-1.8,0.1c-1-2.9-2-5.9-3-8.8c-1-3-2.1-5.9-3.3-9.6c-17,8.9-36.1,14.5-46.1,34.6
		c5.4-3.7,9.7-6.6,15-10.2c-2.1,8.1-3.8,14.9-6,23.2c16.6-12.9,32.8-23.6,53.4-26.3c0-4,0-7.9,0-12.6c7.4,11.4,6.4,19.7-1.6,28.7
		c-4.9,5.6-8.7,12.1-12.7,18.4c-0.5,0.8-0.1,2.9,0.6,3.8c1,1.4,2.7,2.4,4.5,3.9c-1.8,1.5-2.9,2.5-4.5,3.9c-1.9-2.3-3.6-4.3-5.2-6.4
		c-2.9-4-2.5-7.8,1-11.2c2.6-2.6,5.3-5,4.4-9.4c-0.2-1,1.2-2.6,2.2-3.6c2.7-2.6,5.6-5,8.4-7.5c-0.2-0.4-0.3-0.9-0.5-1.3
		c-4.4,1-9,1.6-13.2,3.1c-15.2,5.6-27.4,14.7-35,29.5c-7.4,14.5-18.2,25.5-33.5,32.2c-4,1.8-8.5,5.9-9.8,9.9
		c-3.5,10.3-5.4,21.2-7.9,31.9c0.6,0.2,1.2,0.4,1.8,0.5c1.4-2.5,2.8-5,4.9-8.6c0.2,3.6,0.3,5.9,0.4,7.7c4.7-5.5,9.5-11.2,13.4-15.8
		c-0.3-2.6-1-4.4-0.5-5.8c1.2-3.6,1.9-3.6,11.1-1.8c0-5,0-10,0-15c1.9-0.5,3.5-0.9,5.6-1.5c1.6,7.5,3.1,14.7,4.7,22
		c2.2,0.5,4.3,0.9,7.2,1.6c-2.5,0.7-4.4,1.3-6.9,2c4.2,7.2-1.2,9.7-5.9,12.8c-3.4,2.2-6.9,4.2-9.7,6.9c-2.6,2.6-5.1,5.8-6.3,9.2
		c-2.3,6.9,3.2,13.5,10.4,12.4c1.6-0.2,3.7-4.1,3.8-6.3c0.1-4.6-1.1-9.2-1.8-13.8c0.4-0.2,0.7-0.5,1.1-0.7c1.2,1.6,3.3,3.1,3.3,4.7
		c0.2,5.9,2.9,7.2,8.4,4.9c-4.3-9.4-1-16.8,6-23.8c4.6-4.6,4.1-8.6,0.4-15c-1.4-2.4-1.9-5.4-2.9-8.1c0.6-0.3,1.2-0.6,1.9-0.9
		c2.7,3.4,5.4,6.9,8.7,11c-0.4-5.8-2.2-9.2-6.6-12c-2.1-1.3-4.3-5.4-3.8-7.6c3-14.7,7.1-29.1,19.4-40c0.7,7.3,1.4,14.2,2.1,21.8
		c-3-1.8-5.5-3.4-8.5-5.3c0,5.9,0,11.3,0,16.8c5.1-1.1,10.2-2.3,15.4-3.4c4.3-0.8,8,0,11.5,3.1c10.2,9.1,21.6,10.3,34.5,3.9
		c-1.1,6.7-2.4,12.3-8.4,16c10.1-2,20.2-3.7,30.2-6.1c8.2-2,16.1-4.8,24.2-7.3c0.7-0.4,1.4-0.7,2.1-1.1c1.8,0,3.6,0,5.6,0
		c-8.6,8.5-19.5,10.3-30.5,11.9c-21.7,3.3-43.4,6.7-65.1,10.2c-7,1.1-13.7,3.1-17.5,10.9c7.4,4.7,14.7,9.2,21.8,14
		c2.2,1.5,3.5,4.1,5.4,6c2.2,2.1,4.3,4.4,6.9,5.8c2.6,1.3,5.7,1.5,8.9,2.3c-1.7,20.4-3.4,40.5-5.1,60.7c-0.4,0.1-0.9,0.1-1.3,0.2
		c-0.3-1.1-0.8-2.2-0.9-3.3c-0.7-7.5-1.3-14.9-1.9-22.4c-0.7-8.2-6.3-13.1-16-14.2c-6.6-0.7-13,3.1-14.2,10.5
		c-1.4,9.1-1.9,18.6-1,27.7c0.5,5.3,6.3,8.9,10.8,11.6c10,5.9,16.8,13.7,20.1,24.9c1.5,5,4.4,9.6,7.8,14.1c0.3-1.8,0.5-3.6,1-6.8
		c1.5,1.7,2.9,2.6,3.2,3.7c4,18.7,16.5,29.4,33.3,36.2c17.6,7.1,35.6,12,54.9,10.6c11-0.8,19.7-5.4,26.2-14.3
		c6.8-9.3,9.9-20.1,13.9-32.2c-11.9,7.1-23.8,2.7-35.1,4.1c-6.2,0.8-12.2,2.8-18.1,5.1c-4.1,1.6-7.8,4.4-11.7,6.6
		c-6.5,3.8-8.3,3.3-13.6-3c-4.1-5-4.5-10-0.1-14.3c3.5-3.4,7.8-6.1,12-8.8c1-0.6,2.8,0,4.2,0.2c8.7,1.1,17.4,2.8,26.1,3.2
		c9.7,0.4,18.3-3.1,25.5-11.8c3.8,5.9,7.3,11.4,11.4,17.7c2.3-8.6,4.6-16.8,6.6-25c4.6-19.1,6.5-38.4,5.5-58
		c-0.6-11.3-0.7-11.3-11.2-13.6c1.7-4.2,4.3-6.5,9.3-6.4c9,0.3,9.7,0.3,12.3-8.4c2.5-8,4.3-16.5,4.7-24.8c0.3-7.1,1.1-13.4,5-19.3
		c1.3-1.9,2.2-4,3.6-6.8c-6.9,0-13,0-20,0c0.7-5.8,1.3-10.9,1.9-16c0.4-0.1,0.8-0.1,1.1-0.2c1.3,2.7,2.6,5.5,3.8,8.2
		c14.5-4.4,21.5-10.9,20.2-19.1c-7.4-0.7-14.8-0.9-22.1-2.1c-23.3-3.7-46.6-8.2-70-11.3c-26.2-3.5-52.2-0.2-77.7,6.5
		c-3.1,0.8-6.1,1.5-9.2,2.3c-2.8,0.7-4.5,0-4.5-3.5c10.8-4.8,22.5-6.6,34.2-8.1c25.2-3.2,50.5-4.8,75.7-1c13.3,2,26.4,5.4,39.5,8.4
		c16.6,3.7,32.7,3.3,48-5.1c6-3.3,12.5-2.7,19.1-1c-4.5,1.2-8.9,2-13.1,3.4c-10.1,3.4-14.7,9.6-14.5,20.1c0.1,5.9-1.4,11-4.3,16.1
		c-8.6,15.2-12.8,31.9-14.6,49c-2.1,18.8-2.4,37.8-4.2,56.7c-0.6,6.8-2.3,13.8-5,20.2c-7.3,17.4,0.8,43,14.9,52.3
		c5.2-5.6,11-10.7,19.1-11.4c4.7-0.4,9.6-0.2,14.3,0.5c18.6,2.7,34.4-1.8,47.7-15.7c3.4-3.6,9.7-4.5,14.6-6.7
		c3.1-1.4,6.5-2.6,9.1-4.7c16.7-13.5,35.8-21.1,56.9-23.5c27.9-3.2,55.6-2.5,82.6,5.8c34.6,10.6,59.9,33.2,79.2,63.1
		c5.7,8.8,10.7,18.1,15.4,27.4c8.1,16.2,20.2,27.5,37.7,32.7c25.7,7.7,48.4,21.1,69.5,37.4C735,628.3,735,629.7,735,631z
		 M80.3,173.8c-1.1,2.8-1.8,5.3-3,7.6c-1.1,1.9-2.5,4.2-4.3,5c-10.1,4.4-16.1,12.4-21.1,21.7c-1.5,2.9-1,5.3,1.5,6.3
		c2.7,1.1,6.3,1.8,8.8,0.9c9.6-3.7,18.9-8.2,28.2-12.4c1.2-0.5,2.2-1.4,3-2c-3-1.3-5.5-2.3-8.1-3.4c0.2-0.5,0.3-1,0.5-1.5
		c11.1-2.9,22.3-5.8,33.4-8.7c-0.1-0.4-0.1-0.9-0.2-1.3c-5.4,0-10.8,0.2-16.1-0.1c-1.4-0.1-2.7-1.6-4.1-2.4c0.2-0.5,0.5-0.9,0.7-1.4
		c16.2-4.7,32.4-9.4,48.6-14.1c-0.1-0.3-0.2-0.5-0.2-0.8c-5.7-0.6-11.5-1.1-18.4-1.8c9.5-8.2,18.2-15.1,29.3-18.4
		c12.2-3.6,22.3,0.8,31.8,7.9c-1.2-1.7-2.3-3.4-3.7-5.4c4.9-0.7,9.3-1.4,14.9-2.2c-11.5-7-22.6-8.5-34.3-6.7
		c-5.1,0.8-10.3,1.5-15.3,1.1c-5.2-0.4-9.3,0.9-13.4,4c-10.7,8.2-21.4,16.3-32.4,24.2c-4.4,3.2-9.2,6-14.1,8.4
		C85.8,181.4,83.9,180.5,80.3,173.8z M220.2,591c2.8-3.5,6.1-7.7,9.3-11.9c9.9-12.9,22.4-23.7,30.4-38.1c1.2-2.2,3.5-4.1,5.7-5.5
		c1.4-0.9,3.7-1.1,5.2-0.5c0.8,0.3,1.1,3.1,0.8,4.6c-0.8,3.7-2,7.3-3.3,11.8c2.2-1,3.4-1.6,4.6-2.2c0.7,1.1,1.2,2,1.9,3
		c2.4-2.9,4.6-5.5,7.4-8.9c0,3.2,0,5.3,0,8.3c2.1-2.9,3.7-4.9,5.3-7.1c0.4,0.8,0.7,1.5,0.9,1.9c5.3-7.1,3.4-12.9-3.1-18.5
		c-6-5.2-10.1-11.8-12-19.7c-1.1-4.4-2.5-8.7-4-13.9c-0.7,1.8-1.2,2.8-1.5,3.9c-4.6,14.2-8.9,28.6-13.8,42.7
		c-3.4,9.9-9.7,17.7-20.4,20.1c-12.2,2.8-21.1,9.7-26.7,20.6c-4.9,9.6-9.2,19.5-13.8,29.3c-0.5,1.1-0.7,2.2-1.1,3.4
		c0.2,0.1,0.4,0.2,0.6,0.3c7.8-9.5,15.6-18.9,24.2-29.3C218.3,587.5,219.2,589.2,220.2,591z M101.6,219.2c6.6-2.4,10.4-7,13.6-12.7
		c4.7-8.3,10.2-16.2,15.8-25.1c2.2,2.4,3.5,3.8,4.9,5.2c2.6-2.3,5.3-4.9,8.2-7c8.1-5.8,16.1-11.7,24.6-16.9
		c4.8-2.9,10.3-2.7,17.1,0.5c-7.7,3.3-14.2,6-20.7,8.8c-6.7,2.9-12.9,6.4-17.2,14.4c4.7-2.3,8.3-4.1,11.8-5.8
		c6-2.8,12.5-5.4,18.7-2.9c6.3,2.5,8.7-0.1,10.8-5c1-2.4,2.2-4.8,2.8-7.4c0.3-1.4-0.1-3.5-1-4.6c-5-6.3-11.4-11.4-19.3-12.4
		c-14.5-2-25.3,6.2-36.6,15.6c5.1,0.5,9.1,0.7,13,1.4c1.5,0.2,2.8,1.4,4.2,2.1c-1.3,1-2.4,2.5-3.9,3c-13.5,4.1-27.1,7.9-40.7,11.9
		c-1.2,0.4-2.4,0.9-3.7,1.3c0.1,0.3,0.2,0.6,0.2,0.8c5.8,0,11.5,0,17.1,0c1.5,3.2,0.8,5-2.6,5.6c-3.3,0.6-6.5,1.5-9.7,2.3
		c-6,1.6-12,3.2-18,4.7c0.1,0.3,0.1,0.5,0.2,0.8c2.5,0.3,5,0.6,8,0.9c-1.4,1.6-2.3,2.7-3.2,3.7c4.1,1.5,7.9,2.8,11.4,4.1
		C105.5,210.9,103.5,215.1,101.6,219.2z M111,224.7c13.2-5.1,26.5-10.2,39.6-15.3c-1.8-0.4-4.3-1.2-6.9-1.5
		c-8.8-0.9-15.8,3.8-23.7,8.5c13.4-18.8,34.9-22.3,44.5-7.7c-7.9,11.9-15.8,23.8-23.7,35.8c0.5,0.4,1.1,0.7,1.6,1.1
		c11.8-11.7,17.7-27.4,27.5-41c-3.4-1.2-6.2-2.2-9-3.2c-2.9-1-5.7-2-9.2-3.1c10.9-6.1,16.5-6,21.8,0c3.3-5.5,6.6-11,10-16.6
		c-15.8-8-26.5,5.2-40.8,8.3c3-4.8,5.4-8.6,8.3-13.2c-6.8,5.8-12.8,10.9-19.4,16.5c0-2.7,0-4.7,0-6.6c-0.4-0.2-0.8-0.4-1.3-0.5
		c-4.4,7.2-9.2,14.1-13.1,21.6c-4.1,7.9-13.9,16.6-21.2,17.7c1.7-3.9,3.4-7.8,5.1-11.7c-0.3-0.2-0.5-0.3-0.8-0.5
		c-6.4,5.3-12.8,10.6-19.2,15.8c12.8,6,20.1-4.7,29.8-8.7C111,222.2,111,223.9,111,224.7z M578.4,525.1c-0.1,0.6-0.3,1-0.2,1.2
		c8.7,13.6,12.8,28.7,15.8,44.4c0.3,1.4,2.2,3.2,3.7,3.5c7,1.4,14.1,2.2,21.2,3.5c8.9,1.7,17.8,3.6,26.7,5.4
		c-4.4-4.9-9.2-9.3-12.9-14.5c-3.7-5.2-6.3-11.3-9.6-16.9c-5.6-9.4-11.3-18.8-17.1-28.1c-1.2-2-2.8-3.8-4.3-5.7
		c-0.3,0.2-0.7,0.4-1,0.7c11.3,16.5,20.2,34.3,27.1,53.1c-7.4,2-10.1,0.6-14-5.7c-6-10-12.2-19.8-18.3-29.7
		C591.5,529.8,585.1,527.3,578.4,525.1z M78.8,347.1c8.9,7.1,18.5,8.3,28.8,7.2c5.8-0.6,11.6-1,17.4-1c7,0.1,9.3-1.5,10.5-9.1
		c-11.9,4.3-22.8,2.3-32.1-5.9c-3.4-3-6.8-3.9-11-2.9c-5.7,1.4-11.4,2.7-17.6,4.2c0-7,0-13.7,0-20.4c-0.4-0.1-0.9-0.2-1.3-0.2
		c-2.4,8.1-5.1,16-7,24.2c-0.4,1.8,1.9,4.4,3.3,6.4c2,3,4.6,5.8,6.4,8.9c1,1.7,1,4,1.5,6c5-1.2,6.1-3.9,4.3-8.2
		C80.7,353.4,79.8,350.2,78.8,347.1z M242.5,494.5c-7.5,7.6-15.6,10.7-24.8,10.6c-7.1-0.1-14.5-0.1-21.2-2.1
		c-7.6-2.2-13-0.1-18.3,4.8c-5.1,4.6-6,8.3-2.6,12.9c4.5,6.1,6.4,6.5,13,2.5c2.1-1.3,4.3-2.5,6.4-3.8c8.6-5.2,17.8-8,28-7.4
		c4.1,0.3,8.3,0.7,12.5,0.4c4.9-0.4,9.8-1.5,16.1-2.5C248,503.8,245.4,499.5,242.5,494.5z M32.7,233.9C47,245,64,246.4,81.4,247.1
		c0,1.5,0,2.6,0,3.8c14.8,0.6,23.9-5.6,22.6-15.7c-7.4-1-15-1.7-22.5-3c-7.5-1.3-15-3.2-22.4-4.8c3.9-4.2,7.3-8,10.7-11.7
		c-6.4,2.9-12.4,7.5-19.5,1c5.6,11.1,13.7,18.8,25,23c1.4,0.5,2.6,1.7,3.8,2.6c-0.3,0.6-0.6,1.1-0.9,1.7
		C63,240.6,47.9,237.2,32.7,233.9z M307.6,310c-5.8,1.5-10.5,3.1-15.4,3.9c-5,0.8-10,0.9-15.1,1.3c3.5,1.1,7.1,1.5,10.7,1.7
		c3.6,0.2,7.2,0,10.7,0c1.3,11.1-12.7,25.7-22.9,24.2c-0.8-1-1.6-2-3.2-4c-0.2,3.2-0.3,5-0.4,7.5c7.1,0,13.7,0,20.9,0
		c-5.1,10.7-13.3,19.7-9.2,31.7c0.1-0.2,0.3-1,0.6-1.7c4.6-11.9,9.2-23.7,13.8-35.6c0.9-2.3,1.9-4.8,1.8-7.1
		C299.7,323.9,300.6,316.4,307.6,310z M35,231.2c9.2,2,18,4,26.8,5.9c-10.3-9.9-17.3-21.5-21.4-35.1c-0.4,0.2-0.8,0.3-1.2,0.5
		C37.9,211.8,36.6,221.1,35,231.2z M102.8,207.6c-8.3-3.1-34.7,9.5-38.5,18.1c3.8,1,7.6,2.1,11.6,3.1
		C80.4,216.1,89.9,209.9,102.8,207.6z M9.8,324.4c5.6-2.1,10.7-4,16.8-6.3c-1.5,3.6-2.5,5.8-3.9,9.2c6.4-4.7,11.7-8.6,17-12.5
		c-0.2-0.3-0.4-0.6-0.5-0.9c-1.4,0.4-2.8,0.7-4.2,1.1c-3-6.3-7.8-2.5-11.7-2.1C16.6,313.6,13.1,318.6,9.8,324.4z M125.3,356.1
		c-14-1.5-28.5,4.3-42.3-4.1c0.9,4,1.7,7.2,2.1,9.1C98.6,359.4,111.9,357.8,125.3,356.1z M193.9,302.1c20.2,3.1,41.4,6.3,62.7,9.5
		C235.8,305,214.5,302.2,193.9,302.1z M55.1,365.3c-1.9-6.5-2-12.9-4.5-18.7c-0.6,0.1-1.2,0.2-1.7,0.3c0,5.3,0,10.7,0,16.1
		c-10.1-1.5-10.1-1.5-10.8,0.8C43.4,364.2,48.7,364.7,55.1,365.3z M202.8,146.4c0.6,0.4,1.2,0.8,1.8,1.1
		c8.9-14.6,17.8-29.2,26.8-43.8c-0.4-0.2-0.8-0.5-1.1-0.7C221.1,117.5,211.9,132,202.8,146.4z M118.6,235.5c6-5.6,12-11.3,18-17
		C128.4,222.2,118,223.4,118.6,235.5z M70.2,392.9c-0.6-0.2-1.1-0.5-1.7-0.7c-2.1,5.3-4.1,10.7-6.3,16c-2.2,5.2-4.7,10.3-7.4,16.3
		C64.9,415.6,66,403.5,70.2,392.9z M69.3,376.6c-8.9,8.8-10.5,14.1-5.9,21.8C65.5,390.7,67.4,383.7,69.3,376.6z M80.7,226.4
		c5.9-4.8,11.7-9.6,17.6-14.4C89.8,213.7,83.5,218.1,80.7,226.4z M157.6,172.9c7-3,14-5.9,21.1-8.9
		C169.5,162.4,163.5,167.7,157.6,172.9z M107.3,295.1c2.4-3,4.7-5.8,7-8.5c2.2-2.6,4.4-5.2,6.6-7.8c-0.4-0.3-0.8-0.6-1.3-0.9
		C116,283.8,106,285,107.3,295.1z M170.6,202.3c-0.9-7.3-4.3-8.3-12.5-4.1C162.4,199.6,166.2,200.8,170.6,202.3z M75.7,316.1
		c2.7,1.7,4.7,3,7.6,4.9c-0.4-4.7-0.7-8.2-1.2-13C79.5,311.3,77.8,313.4,75.7,316.1z M50.7,420.4c6.6-5,8.6-11.5,10.6-18
		c-0.6-0.3-1.2-0.6-1.7-1C56.7,407.5,53.9,413.5,50.7,420.4z M121.7,271.7c-6.6,1.7-13.3,3.4-19.9,5.2c5.6,0.1,10.9-0.8,16.3-1
		C121.5,275.8,122.5,274.6,121.7,271.7z M196.7,159.1c0.4-0.2,0.7-0.5,1.1-0.7c-1-2.3-1.9-4.7-3.1-7.5c2.7,0,4.8,0,6.9,0
		c0-0.4-0.1-0.8-0.1-1.1c-3.4,0.4-6.7,0.8-10.9,1.3C193,154.2,194.8,156.7,196.7,159.1z M71.9,373.3c4.6-4.3,4.5-6-0.9-10.8
		C71.3,365.7,71.6,369.5,71.9,373.3z M9.9,319.5c-0.5-0.2-1-0.5-1.5-0.7c-1.8,3.9-3.5,7.9-5.3,11.8c0.6,0.3,1.2,0.5,1.8,0.8
		C6.5,327.4,8.2,323.4,9.9,319.5z M119.1,311c0.1,0.4,0.2,0.8,0.3,1.3c6.2-1.5,12.4-3.1,18.5-4.6c-0.1-0.4-0.2-0.9-0.3-1.3
		C131.5,307.9,125.3,309.5,119.1,311z"/>
	<path class="st0" d="M1,627c11.7-10.5,20.6-23.2,27.2-37.2c9.8-20.8,18.8-41.9,27.8-63c3.6-8.3,1.3-16.6-0.4-25
		c-4.4-21.3-8.4-42.7-12.6-64.1c-0.2-1.1-0.2-2.3-0.4-3.6c3.3-0.9,6.3-3.4,7.9,2c10.2,35,20.8,69.8,30.6,104.9
		c6.9,24.6,11.1,49.7,12.6,75.2c0.1,0.9,0,1.9-0.9,3c-6.6-17.1-13.1-34.1-19.9-51.6c-3.4,4.3-3.1,10-6.8,13.2
		c-0.5-0.2-1-0.4-1.5-0.6c0.7,3,1.4,6,2.4,10.4c-3-3.8-5.2-6.4-8.3-10.4c0.5,4.3,0.8,7.3,1.2,10.7c-1.5-0.7-2.5-1.3-4.3-2.1
		c0.4,2.9,0.7,5.3,1,8.4c-1.9-1.5-3.5-2.7-6.1-4.7c0.9,3.8,1.6,6.5,2.3,9.7c-1.9-0.4-3.3-0.7-5-1.1c0,2.6,0,5.1,0,7.9
		c-1.7-0.9-3.1-1.6-5-2.5c0.7,3.8,1.4,7.4,2.4,12.3c-2.9-3.3-4.9-5.4-6.8-7.6c-0.2,0.1-0.5,0.2-0.7,0.4c1.1,3.4,2.1,6.7,3.5,11.2
		c-2.5-1.7-4.2-2.8-6.4-4.3c0.7,3.2,1.2,5.9,1.9,8.9c-2.1-1.1-3.7-1.9-5.9-3.1c3.6,10-5,15.5-7.3,23.9c6.4-0.4,12.6-0.8,18.8-1.1
		c0-0.2,0-0.3,0-0.5c-5-0.5-10-1-15.1-1.5c-0.1-0.6-0.3-1.3-0.4-1.9c3.2-1,6.4-2.6,9.8-2.9c8.1-0.6,16.3-0.6,24.4-1
		c1.2-0.1,2.7-0.3,3.5-1c5.2-4.4,10.3-8.9,15.7-13.7c4.4,5.8,12.5,7.8,12.7,16.6c11.4,1.5,23.1,2.9,34.8,4.4
		c1.3-9.4-7-17.5-4.1-27.5c-2.1,0-4.5,0-8,0c2.1-2.9,3.6-5.1,5.6-7.9c-2.6-1.4-5-2.6-7.6-4c1-1.2,1.8-2.1,2.8-3.4
		c-2.4-1.5-4.6-2.8-7.1-4.3c1.4-1.3,2.7-2.5,3.8-3.6c-3.4-1.9-6.5-3.7-10.3-5.9c2-1.6,3.1-2.6,4.7-3.9c-2-0.8-3.7-1.4-6-2.3
		c1.4-2.7,2.7-5.2,4.3-8.1c-2.4,0-4.3,0-6.8,0c0.9-2.2,1.7-4.2,1.9-4.9c-13.8-24.9-24.6-49.6-26.4-78.2c8.6,2.6,15.4,7.3,17.7,15.3
		c9.3,32.3,26.3,61.4,38.4,92.5c5.2,13.5,4.1,27.1,3.3,40.9c-0.1,1.8-1.5,3.6-2.4,5.4c17.2,6.7,35.6,4.2,53.3,7.2
		c0.6-1.6,1.2-3.1,1.9-4.7c1.9,0.3,3.7,0.6,6.9,1.2c-2-1.3-2.9-1.8-4.2-2.7c26.8-20,51.7-42.6,87.2-46.9c-0.2,1.8-0.4,3-0.5,4.3
		c-0.2,1.3-0.4,2.6,0.1,4.1c0.8-2.6,1.5-5.3,2.3-7.9c5.9-21.3,11.6-42.7,17.8-63.9c1.8-6.1,4.9-11.9,8-17.6
		c2.8-5.2,6.7-6.3,12.3-4.3c18.4,6.6,41.1,0.9,54.4-13.5c1-1.1,2-2.6,3.3-3c2.2-0.7,4.8-1.2,6.9-0.6c0.9,0.3,1.5,3.6,1.2,5.4
		c-2.6,14.4-5.5,28.8-8.3,43.1c-1.5,7.7-2.9,15.3-4.5,23.2c0.5-0.2,0.9-0.3,0.9-0.5c7.4-16,20.5-21.1,36.9-14.6
		c16.2,6.5,29.9,25.2,30,41.3c-1.4-0.4-2.7-0.8-4.6-1.3c1.1,2.4,2.2,4.3,2.8,6.2c0.4,1.2,0.8,3.1,0.2,3.9c-0.5,0.7-2.5,0.4-3.1,0.4
		c-1,2-1.8,3.9-3,5.6c-1.7,2.3-3.7,4.3-5.5,6.4c-4.3,4.9-4.3,4.9-3.4,11c-1.6-0.9-3-1.6-5.2-2.8c1.1,2.6,1.9,4.6,3,7.5
		c-2.7-0.8-4.8-1.4-7.4-2.2c-3.3,6.8-6.3,13.9-10,20.6c-1.9,3.5-5,6.3-7.2,9.5c-1.1,1.7-1.6,3.8-2.4,5.7c-1,0-2,0-3,0
		c1.8-3.3,3.5-6.7,5.5-9.9c2.5-3.9,5.6-7.5,7.9-11.5c1.3-2.2,1.3-5.1,2.4-7.5c1.7-3.5,3.8-6.9,5.8-10.6c0.2,0,1.3,0.1,2.8,0.3
		c-1.4-3.2-2.5-5.8-4.1-9.6c3.2,2,5.2,3.2,7.2,4.4c1.7-2,3.1-4.1,5-5.7c7.5-6,9.8-12.7,3.2-20.8c-0.2-0.3-0.2-0.9-0.4-1.9
		c3,2.4,5.6,4.5,8.2,6.6c0.2-0.2,0.4-0.3,0.6-0.5c-1.4-3.2-2.9-6.4-4.5-10c2.6,0.7,4.4,1.2,6.3,1.8c-0.9-15.2-18.2-33.6-33.9-36.3
		c-15.7-2.7-26.2,4.5-29.3,20.3c-0.8,4.2-1.5,8.5-2.3,12.8c-8,43-8,43,5.7,76.2c0.3,0.6,0.6,1.2,0.8,1.8c-2.3,0-4.7,0-7,0
		c-3.4-7.5-6.5-15.2-10.2-22.5c-1.8-3.6-2.4-3.3-5.6-0.1c5.9,6.7,11.9,13.4,13.8,22.6c-1.7,0-3.3,0-5,0c-3.5-7.4-7-14.8-10.7-22.6
		c-2,1.1-3.4,1.9-3.8,2.2c3,7.2,5.8,13.8,8.5,20.4c-1.7,0-3.3,0-5,0c-2.2-9.1-8.2-15.8-14.7-22c-1.6-1.5-2.9-3.4-4.5-5.5
		c5.5-2.2,10.3-4.2,15.5-6.2c-22.2-13.7-44-10.7-66.2,0.6c2.2-11.5,4.1-21.6,6-31.7c0.6-3.4,2.4-3.4,5.3-1.8
		c-1.2,7.4-2.3,15-3.6,22.7c6.4-3,5.3-14.7,16.1-11.2c0-4.4,0-8.5,0-13.4c3.7,2.8,6.7,4.1,7.3,8.9c1,9.5-5.5,10.8-12.6,11.9
		c0.2,0.4,0.4,0.8,0.6,1.2c11.9,0,23.8,0,35.6,0c-1.2-0.6-2.7-1.2-4.4-2c2-3,5.2-5.8,5.1-8.4c0-2.4-3.8-4.6-6-7.1
		c2.7-0.8,5.7-1.7,8.6-2.5c3.9,6.6,1.2,16,10.5,19.2c5.9-34,11.8-67.7,17.6-101.6c1.9,0.2,3.4,0.3,5.6,0.6
		c-7.2,36.1-11.3,72.4-20.9,108.1c1.2,0.2,2.7,0.5,4.7,0.8c8.2-42.3,16.2-84.1,24.3-125.9c-4.3-2.1-6.2,0.9-8,3.1
		c-5,6.1-11.4,10.1-18.8,12.7c-11.3,4-22.9,5.7-35.6,2.7c-6.5,18.5-13,36.9-19.6,55.6c-1.4-0.6-2.6-1.1-4.1-1.7
		c6.3-18.8,12.4-37.1,18.5-55.5c-0.4-0.3-0.8-0.7-1.2-1c-1.8,1.4-4.3,2.5-5.4,4.4c-2.8,4.7-5.7,9.5-7.3,14.6
		c-4.2,13.2-7.7,26.5-11.4,39.8c-5.7,20.9-11.3,41.8-16.8,62.5c0.1,0,1.1-0.4,2-0.8c20.7-9.4,44.8-5.5,61.2,10.3
		c5.4,5.2,10,11.1,11.6,18.8c-0.7,0-1.3,0-2,0c-10.7-25.3-40.2-35.5-61.8-29.1c-9,2.7-16.4,8-23.5,13.8c-5.4,4.4-10.7,8.8-16.1,13.2
		c-0.3-0.2-0.6-0.4-0.9-0.6c0.6-2.9,1.3-5.8,1.8-8.4c-4.4,1-8.7,1.9-13.4,2.9c2.8,0.9,5.3,1.7,8,2.6c-0.6,1.6-1.1,3-1.7,4.3
		c-0.2-0.4-0.4-0.7-0.7-1.1c-1.6,0.8-3.2,1.5-4.9,2.3c-2,0-4,0-6,0c-6.8-1.9-13.6-3.8-20.5-5.6c-16.4-4.2-33-7.1-49.1-6.2
		c-1.6,4.3-3,8-4.4,11.8c-1.7,0-3.3,0-5,0c0.8-4.2,1.6-8.4,2.4-12.5c-14.5-6.4-95.9-14.1-103.1-9.8c13.7,1.1,27.3,2.2,40.9,3.4
		c1.6,0.1,3.2,0.8,4.7,1.3c-0.1,0.6-0.2,1.1-0.3,1.7c-2.8,0.2-5.6,0.5-8.3,0.5c-15.6-0.1-31.3,0-46.9-0.5
		c-9.8-0.3-17.6,1.6-18.7,13.3c-0.1,0.9-0.5,1.8-0.7,2.8c-1,0-2,0-3,0c3.7-8.3,6.6-17,11.2-24.8c4.1-6.8,6.9-13.1,3.1-20.7
		c-0.1-0.1,0.3-0.4,0.5-0.7c1.6,0.8,3.2,1.5,5.3,2.5c-0.8-3.6-1.5-6.6-2.3-10.5c2.2,1.7,3.6,2.7,5.9,4.4c-1.3-4.3-2.4-7.7-3.4-11
		c0.4-0.4,0.8-0.7,1.2-1.1c2.1,1.5,4.1,3.1,6.3,4.7c-0.6-2.9-1.1-5.5-1.8-8.6c2.4,1.5,4.1,2.5,6,3.6c0-2.5,0-4.6,0-6.9
		c1.5,0.3,2.8,0.6,4.5,0.9c-1-4-1.8-7.4-2.8-11.7c2.5,1.8,4.2,3,6.5,4.6c-0.5-3.4-0.8-5.9-1.2-9.1c1.8,1.3,3.1,2.2,5.2,3.7
		c-0.6-4.6-1.1-8.4-1.7-13.3c2.6,3.1,4.2,5.1,6.3,7.6c0.4-3.9-3.3-8.5,2.9-9.9c0.6,1.3,1.1,2.6,2,4.7c0.9-2.3,1.4-4.1,2.4-5.6
		c0.8-1.2,2.2-2.9,3.2-2.8c1.4,0.2,3.1,1.6,3.7,2.9c2.4,5.5,4.5,11.1,6.6,16.7c2.2,5.8,4.4,11.6,6.6,17.4c0.8-2.4,0.9-4.6,0.5-6.7
		c-2.4-13.9-3.8-28.1-7.6-41.7c-10.6-38.8-22.2-77.4-33.4-116c-0.3-1-1.5-1.8-2.2-2.7c-0.3,1.3-0.9,2.6-0.7,3.8
		c4.1,21.4,8.1,42.8,12.6,64.1c2.3,10.6,2.4,20.7-2.8,30.6c-2.6,5-4.6,10.3-6.8,15.6c-8,19-15.2,38.4-26.9,55.6
		c-5.5,8.1-11.7,15.6-18,23.8c5.6,0.7,11.3,1.4,16.7,2.1c0.5,3,0.9,5.6,1.3,8.7c-5.8,8.3-12,17.1-18.2,26c-1-0.3-2-0.7-3-1
		c4-5.5,8-11,13-18c-5.4-0.4-9.2-0.7-13-1c0-1,0-2,0-3c3.6,0.4,7.1,0.9,10.9,1.4c1.8-2.4,3.8-5,6.3-8.4c-6.5-0.4-11.9-0.7-17.2-1
		C1,632.3,1,629.7,1,627z M194,646.2c11.6,3,21.8,5.9,32.1,8.2c7.6,1.7,14.9,0.1,20.4-5.3c5.9-5.9,11.5-12,19-15.8
		c0.7-0.4,1.5-1.1,1.7-1.8c2.5-9.3,5-18.7,7.7-28.9C241.9,607.2,219.1,627.5,194,646.2z M131.2,640.1c2.6-16.4,1.1-28.7-4.2-42.8
		c-11.5-30.3-28.8-58.2-36.7-89.9c-1.5-6.2-6.5-10.1-13.4-12.6c1,6,1.7,11.2,2.7,16.4c3.5,17.5,11.6,33.2,19.5,49
		c1.3,2.6,3.8,4.7,6.3,7.6c-0.2,0.4-0.8,2.1-1.5,4.2c2.4,0,4.5,0,7.1,0c-1.8,3.5-3.3,6.5-4.9,9.7c2.7,0.9,5.1,1.7,7.9,2.6
		c-2.3,1.8-4,3.1-6.6,5c4.3,1.7,7.8,3,11.9,4.6c-2,1.6-3.5,2.7-5.3,4.2c2.9,1.6,5,2.9,7.3,4.1c-1,1.2-1.8,2.2-2.8,3.4
		c2.3,1.2,4.5,2.4,6.9,3.7c-1.4,2.2-2.7,4.2-4.2,6.5c3.3,0.2,5.8,0.3,7.6,0.4c-1,3-3,6-2.6,8.6C127,629.7,129.3,634.5,131.2,640.1z
		 M366.3,593.4c-0.3-0.1-0.7-0.1-1-0.2c-2.4,12.3-4.8,24.6-7.2,37c-2.2-0.6-4-1.2-6.1-1.8c0.5,1.8,0.9,3,1.3,4.3
		c-6,2.4-11.8,4.7-17.7,7.1c2.8,3.1,5.2,5.6,7.3,8c3-6.3,9.7-6.3,14.3-10.1c2.2,3,4.1,5.5,5.8,8.1c1.6,2.4,2.9,5.1,4.4,7.6
		c0.2-1.6,0.1-2.9-0.6-4c-6.9-12-6.3-24.6-3.4-37.6C364.9,605.7,365.4,599.5,366.3,593.4z M90.5,638.8c0.2-0.4,0.4-0.8,0.7-1.2
		c-3.4-3.2-6.9-6.5-10.5-9.9c-3.6,2.9-7,5.6-11.1,9C77.4,637.5,83.9,638.2,90.5,638.8z M189.1,650.6c-0.1,0.4-0.2,0.9-0.3,1.3
		c12.3,2.8,24.6,5.6,36.9,8.4c0.1-0.4,0.2-0.7,0.3-1.1C213.7,656.3,201.4,653.5,189.1,650.6z M307.8,602c-0.2,4.4-0.4,7.6-0.6,10.8
		c-8,0.1-8,0.1-9.1,3.1C309.1,615.2,312.9,610.5,307.8,602z M301.3,622.4c-2.2-1.5-4-2.6-5.9-4c-1.4,2-3,4.5-4.7,6.9
		c0.2,0.2,0.5,0.5,0.7,0.7C294.7,624.8,298.1,623.6,301.3,622.4z M334.7,616.5c3.5,1,6.5,1.9,9.5,2.8c-1.8-3.1-3.3-5.9-4.9-8.7
		C338,612.2,336.6,614.1,334.7,616.5z M364.9,544.9c0.3,0,0.6,0.1,0.9,0.1c1.4-8.1,2.8-16.1,4.2-24.2c-2.3,6.6-3.6,13.4-4.8,20.2
		C365,542.3,365,543.6,364.9,544.9z M259.8,645.7c-0.3-0.4-0.6-0.7-0.9-1.1c-3.8,3-7.6,6.1-11.4,9.1c0.4,0.4,0.7,0.9,1.1,1.3
		C252.3,652,256.1,648.9,259.8,645.7z"/>
	<path class="st0" d="M346,666c-1.6-7.7-6.2-13.6-11.6-18.8c-16.3-15.8-40.4-19.7-61.2-10.3c-1,0.4-2,0.8-2,0.8
		c5.5-20.6,11.1-41.6,16.8-62.5c3.6-13.3,7.2-26.7,11.4-39.8c1.6-5.1,4.5-10,7.3-14.6c1.1-1.9,3.6-3,5.4-4.4c0.4,0.3,0.8,0.7,1.2,1
		c-6.1,18.3-12.3,36.7-18.5,55.5c1.4,0.6,2.7,1.1,4.1,1.7c6.6-18.7,13.1-37.1,19.6-55.6c12.7,3,24.3,1.3,35.6-2.7
		c7.4-2.6,13.8-6.5,18.8-12.7c1.8-2.1,3.6-5.1,8-3.1c-8.1,41.8-16.1,83.7-24.3,125.9c-1.9-0.3-3.5-0.6-4.7-0.8
		c9.6-35.7,13.7-72,20.9-108.1c-2.2-0.2-3.6-0.4-5.6-0.6c-5.9,33.9-11.7,67.7-17.6,101.6c-9.3-3.2-6.5-12.6-10.5-19.2
		c-2.8,0.8-5.9,1.7-8.6,2.5c2.2,2.4,5.9,4.7,6,7.1c0.1,2.7-3.2,5.5-5.1,8.4c1.8,0.8,3.2,1.5,4.4,2c-11.8,0-23.7,0-35.6,0
		c-0.2-0.4-0.4-0.8-0.6-1.2c7.2-1.1,13.7-2.4,12.6-11.9c-0.5-4.8-3.6-6.1-7.3-8.9c0,4.9,0,9,0,13.4c-10.8-3.5-9.8,8.2-16.1,11.2
		c1.2-7.7,2.4-15.3,3.6-22.7c-2.9-1.6-4.7-1.6-5.3,1.8c-1.9,10.1-3.8,20.2-6,31.7c22.2-11.3,44-14.3,66.2-0.6
		c-5.2,2.1-10,4-15.5,6.2c1.7,2,2.9,3.9,4.5,5.5c6.5,6.3,12.5,12.9,14.7,22C349.3,666,347.7,666,346,666z"/>
	<path class="st0" d="M1,358c2-0.3,4-0.6,6.8-1c2.9,6.2,4.9,13.7,5.2,22.1c0.5,14.9,2.5,29.9,8.4,43.8c2.1,4.9,6.9,8.7,10.4,13.1
		c1.3,1.7,3,3.6,3.3,5.6c4,26.6,7.9,53.3,11.7,80c0.4,3,0.3,6.5-0.7,9.3C35.3,561.5,21.7,590.6,1,616C1,530,1,444,1,358z"/>
	<path class="st0" d="M1,257c3.4-6.4,7.3-12.5,9.9-19.2c3-7.6,4.9-15.7,7.6-24.6c0.7,5,0.7,9,2,12.6c1,3,2.9,6.5,5.4,8.2
		c6.5,4.2,13.4,7.9,20.5,11.1c6.2,2.7,12.7,4.7,19.3,6.4c6.5,1.6,13.2,2.3,20.6,3.6c-16,7.7-29.8,17-34.4,36.5
		c5.5-4.6,10.1-8.5,14.8-12.5c0.3,0.2,0.6,0.4,0.9,0.6c-1.8,7.2-3.7,14.4-5.8,22.7c6.6-4.9,12.4-9.2,18.3-13.6
		c0.3,0.3,0.6,0.6,1,0.9c-10.7,7.2-14.9,19-21.8,29c-6.4,9.4-14.9,16.5-25.5,20.9c-7.1,3-11.7,8.3-13.8,15.5c-2,7-3.2,14.2-4.4,19.8
		c-2.2-7.2-4.8-15.8-7.7-25.1c-1.5,2-2.5,3.2-3.5,4.4c-0.3,0-0.6-0.1-0.9-0.1c0.6-6.8,1.3-13.6,1.9-20.5c0.3,0,0.7,0,1,0
		c0.9,1.9,1.9,3.8,2.9,6c16.7-6.7,29.1-19.9,43.7-29.7c1-0.7,1.5-2,1.5-3.9c-1.3,0.4-2.8,0.5-4,1.1c-7.4,3.9-15.6,0.2-23.1,2.3
		c-5.5,1.5-11.4,2.7-16.4,5.2C5.2,317.7,3,324,1,330C1,305.7,1,281.3,1,257z M31.8,257.2c-9.5-9.6-19.9-5.8-25.9,8.9
		C14.5,263.1,22.9,260.3,31.8,257.2z"/>
	<path class="st0" d="M376,666c-0.3-0.6-0.6-1.2-0.8-1.8c-13.7-33.3-13.7-33.3-5.7-76.2c0.8-4.3,1.5-8.5,2.3-12.8
		c3.1-15.7,13.5-23,29.3-20.3c15.7,2.7,33.1,21.1,33.9,36.3c-1.9-0.6-3.8-1.1-6.3-1.8c1.6,3.6,3.1,6.8,4.5,10
		c-0.2,0.2-0.4,0.3-0.6,0.5c-2.6-2.1-5.2-4.2-8.2-6.6c0.2,1,0.1,1.6,0.4,1.9c6.6,8.1,4.3,14.8-3.2,20.8c-1.9,1.5-3.3,3.7-5,5.7
		c-2-1.2-4-2.4-7.2-4.4c1.6,3.8,2.7,6.4,4.1,9.6c-1.5-0.2-2.7-0.3-2.8-0.3c-2.1,3.7-4.2,7-5.8,10.6c-1.1,2.3-1.1,5.3-2.4,7.5
		c-2.3,4-5.4,7.6-7.9,11.5c-2,3.2-3.7,6.6-5.5,9.9C384.7,666,380.3,666,376,666z"/>
	<path class="st0" d="M4,666c6.2-8.8,12.4-17.7,18.2-26c-0.5-3.1-0.9-5.7-1.3-8.7c-5.4-0.7-11.1-1.4-16.7-2.1
		c6.2-8.2,12.5-15.7,18-23.8C33.8,588.3,41,568.9,49,549.9c2.2-5.2,4.2-10.6,6.8-15.6c5.1-9.9,5-19.9,2.8-30.6
		c-4.5-21.3-8.5-42.7-12.6-64.1c-0.2-1.2,0.4-2.5,0.7-3.8c0.8,0.9,1.9,1.7,2.2,2.7c11.3,38.6,22.8,77.2,33.4,116
		c3.7,13.6,5.2,27.8,7.6,41.7c0.4,2.1,0.3,4.3-0.5,6.7c-2.2-5.8-4.4-11.6-6.6-17.4c-2.1-5.6-4.2-11.2-6.6-16.7
		c-0.6-1.3-2.3-2.7-3.7-2.9c-1-0.1-2.4,1.6-3.2,2.8c-1,1.5-1.4,3.3-2.4,5.6c-0.9-2-1.5-3.4-2-4.7c-6.2,1.4-2.5,6-2.9,9.9
		c-2.1-2.5-3.7-4.5-6.3-7.6c0.6,4.9,1.1,8.7,1.7,13.3c-2.1-1.5-3.4-2.4-5.2-3.7c0.4,3.2,0.8,5.7,1.2,9.1c-2.3-1.6-4-2.8-6.5-4.6
		c1,4.3,1.9,7.7,2.8,11.7c-1.7-0.3-3-0.6-4.5-0.9c0,2.3,0,4.4,0,6.9c-1.9-1.2-3.6-2.2-6-3.6c0.7,3.2,1.2,5.7,1.8,8.6
		c-2.2-1.7-4.3-3.2-6.3-4.7c-0.4,0.4-0.8,0.7-1.2,1.1c1,3.4,2.1,6.7,3.4,11c-2.2-1.7-3.6-2.7-5.9-4.4c0.9,3.9,1.5,6.9,2.3,10.5
		c-2.2-1-3.7-1.8-5.3-2.5c-0.2,0.2-0.5,0.5-0.5,0.7c3.8,7.7,0.9,13.9-3.1,20.7C19.6,649,16.7,657.7,13,666C10,666,7,666,4,666z"/>
	<path class="st0" d="M16,666c0.2-0.9,0.6-1.8,0.7-2.8c1.1-11.7,8.8-13.5,18.7-13.3c15.6,0.4,31.3,0.4,46.9,0.5
		c2.8,0,5.5-0.3,8.3-0.5c0.1-0.6,0.2-1.1,0.3-1.7c-1.6-0.4-3.1-1.1-4.7-1.3c-13.6-1.2-27.2-2.2-40.9-3.4c7.2-4.3,88.7,3.4,103.1,9.8
		c-0.8,4.1-1.6,8.3-2.4,12.5c-4.3,0-8.7,0-13,0c3-2.6,5.9-5.2,8.7-7.7c-1.1-5.8-5.4-5.3-9.3-5.6c-10.6-0.9-21.2-2-31.8-2.9
		c-1-0.1-2,0.9-3,1.4c0.9,0.7,1.7,1.7,2.7,2c2.1,0.5,4.3,0.6,6.4,0.9c9,1.2,17.9,2.4,26.9,3.7c0.2,0.5,0.4,1.1,0.6,1.6
		c-3.1,2.2-6.2,4.4-9.2,6.7C88.7,666,52.3,666,16,666z"/>
	<path class="st0" d="M231,666c1.6-0.8,3.2-1.5,4.9-2.3c0.2,0.4,0.4,0.7,0.7,1.1c0.5-1.4,1-2.7,1.7-4.3c-2.7-0.9-5.1-1.7-8-2.6
		c4.7-1,8.9-1.9,13.4-2.9c-0.6,2.6-1.2,5.5-1.8,8.4c0.3,0.2,0.6,0.4,0.9,0.6c5.4-4.4,10.7-8.8,16.1-13.2
		c7.1-5.8,14.5-11.1,23.5-13.8c21.6-6.4,51.1,3.8,61.8,29.1c-4.3,0-8.7,0-13,0c-1.1-1.8-2.1-3.6-3.5-5.9c-2,2.2-3.8,4.1-5.5,5.9
		c-7,0-14,0-21,0c4.9-5.5,9.8-11,14.8-16.6c-16.8-8.9-38.3-5.5-52.6,8.2c3.3,2.8,6.6,5.6,9.9,8.3C259,666,245,666,231,666z"/>
	<path class="st0" d="M507,666c-7,0-14,0-21,0c-1.3-5.4-2.6-10.8-3.9-16.2c-0.3,0.1-0.5,0.1-0.8,0.2c-0.6,3.7-1.2,7.3-1.8,11
		c-0.3,0-0.6,0-0.9,0.1c-0.8-5.7-1.6-11.3-2.3-17c-0.3,0-0.6,0.1-0.9,0.1c-1.1,2.4-2.2,4.8-3.7,8c-1.2-4.8-2.1-8.3-3.4-13.1
		c-1.2,3.9-2,6.4-2.8,9c-1.4-8.2-4.3-16.2-2.3-25c10.9,9.1,21,18.4,30.8,28.1C498.7,655.8,502.7,661,507,666z"/>
	<path class="st0" d="M298,666c-7.3,0-14.7,0-22,0c-3.1-2.8-6.2-5.7-9.3-8.6c13.8-11.4,33.3-14.5,45.2-7.1
		C307.3,655.6,302.6,660.8,298,666z"/>
	<path class="st0" d="M151,666c1.4-3.8,2.8-7.5,4.4-11.8c16.1-0.9,32.7,2.1,49.1,6.2c6.9,1.7,13.7,3.7,20.5,5.6
		C200.3,666,175.7,666,151,666z"/>
	<path class="st0" d="M507,666c-4.3-5-8.3-10.2-13-14.9c-9.8-9.7-19.9-19.1-30.8-28.1c-2,8.8,0.9,16.8,2.3,25c0.8-2.6,1.6-5.2,2.8-9
		c1.2,4.8,2.1,8.4,3.4,13.1c1.5-3.2,2.6-5.6,3.7-8c0.3,0,0.6-0.1,0.9-0.1c0.8,5.7,1.6,11.3,2.3,17c0.3,0,0.6,0,0.9-0.1
		c0.6-3.7,1.2-7.3,1.8-11c0.3-0.1,0.5-0.1,0.8-0.2c1.3,5.4,2.6,10.8,3.9,16.2c-3,0-6,0-9,0c-0.6-4.4-1.2-8.9-1.9-14.6
		c-1.5,3-2.5,4.9-3.8,7.4c-1-3.4-1.9-6.3-2.7-9.1c-1.5,0.8-3,1.6-5.4,2.8c-1.4-9.7-2.7-18.6-3.7-27.4c-0.1-1.1,1.3-3.1,2.5-3.5
		c1.1-0.4,3.3,0,4.2,0.9c10.7,9.8,21.4,19.5,31.8,29.6c4.4,4.2,8,9.2,12,13.8C509,666,508,666,507,666z"/>
	<path class="st0" d="M125,666c3.1-2.2,6.2-4.4,9.2-6.7c-0.2-0.5-0.4-1.1-0.6-1.6c-9-1.2-17.9-2.5-26.9-3.7
		c-2.1-0.3-4.3-0.4-6.4-0.9c-1-0.2-1.8-1.3-2.7-2c1-0.5,2.1-1.5,3-1.4c10.6,0.9,21.2,1.9,31.8,2.9c3.9,0.4,8.3-0.2,9.3,5.6
		c-2.8,2.5-5.7,5.1-8.7,7.7C130.3,666,127.7,666,125,666z"/>
	<path class="st0" d="M298,666c4.6-5.2,9.3-10.4,13.9-15.6c-11.8-7.4-31.3-4.3-45.2,7.1c3.1,2.9,6.2,5.7,9.3,8.6c-1,0-2,0-3,0
		c-3.3-2.8-6.6-5.5-9.9-8.3c14.3-13.7,35.8-17.2,52.6-8.2c-5,5.6-9.9,11.1-14.8,16.6C300,666,299,666,298,666z"/>
	<path class="st0" d="M1,646c3.8,0.3,7.6,0.6,13,1c-5,7-9,12.5-13,18C1,658.7,1,652.3,1,646z"/>
	<path class="st0" d="M1,635c5.4,0.3,10.7,0.6,17.2,1c-2.6,3.4-4.5,6-6.3,8.4c-3.8-0.5-7.3-0.9-10.9-1.4C1,640.3,1,637.7,1,635z"/>
	<path class="st0" d="M356,666c-2.7-6.6-5.5-13.2-8.5-20.4c0.4-0.2,1.9-1.1,3.8-2.2c3.7,7.8,7.2,15.2,10.7,22.6
		C360,666,358,666,356,666z"/>
	<path class="st0" d="M367,666c-1.9-9.2-7.8-15.9-13.8-22.6c3.2-3.2,3.8-3.5,5.6,0.1c3.7,7.3,6.8,15,10.2,22.5
		C368.3,666,367.7,666,367,666z"/>
	<path class="st0" d="M322,666c1.7-1.9,3.5-3.7,5.5-5.9c1.4,2.3,2.4,4.1,3.5,5.9C328,666,325,666,322,666z"/>
	<path class="st0" d="M155.6,475.7c5.1-14.1,9.5-27.8,15-41.2c7.8-19.2,20.7-26.5,42.3-25.3c8.3,0.5,16.6,0.6,25,0.7
		c9.2,0.1,12.7,4.7,9.7,13.5c-4.1,12.3-2.5,24.6-1.1,37.1c1,9.1,1.4,18.4,1.1,27.7c-2.9-10.6-3.3-22-12.2-31
		c-1.3,10.7-0.4,20.2,6.4,28.8c-7.7,2.7-15.2,5.5-22.8,7.9c-1.5,0.5-3.8,0.1-5-0.8c-4.3-3.2-9.1-4.1-14.2-3.4
		c-11.1,1.7-21.1-0.7-30.4-6.9C165.3,480.1,160.6,478.3,155.6,475.7z M181.4,429.4c-0.4-0.4-0.8-0.9-1.2-1.3c4-4.7,8-9.4,11.8-14
		c-7.1,2.3-12.9,7.3-15.9,14.2c-6.6,15.2-12.3,30.7-18.6,46.5c2.9,1.2,4.8,1.9,6.9,2.7c0.1-16.6,0.1-16.6,16.4-17.8
		c10.9-0.8,19.3,3.7,24.3,13.3c2.1,4.1,4.6,4.9,8.5,4.5c6-0.7,10.3,2.1,14.1,7.2c-6.4,1.1-12,2-17.7,3c2.6,2.1,5.8,4.7,8.3,4.2
		c6.7-1.5,13.1-4.3,19.7-6.7c-5.4-10.6-6.8-21.1-3.1-33.5c3.7,5.8,6.6,10.3,9.8,15.2c0.2-0.9,0.4-1.3,0.3-1.7
		c-0.1-1.5-0.3-3-0.5-4.5c-1.9-13.6-3.2-27.1,1.9-40.4c1.6-4.2-1-6.8-4.7-7.9c-2.3-0.6-4.8-0.3-7.3-0.4c0,0.2-0.1,0.4-0.1,0.6
		c3.2,1,6.4,2.1,9.4,3c-2.4,11.1-10.3,15.7-19.6,19.3c-0.9-1.8-1.8-3.4-2.6-5.2c2.6-1.4,4.9-2.6,7.3-3.8c-0.1-0.2-0.2-0.5-0.3-0.7
		C212.8,426.6,197.1,428,181.4,429.4z M173.8,482c0.7-4.2,3.6-4.8,7-5c7.5-0.5,15-1.4,23-2.1c-0.7-1.3-1-2-1.4-2.7
		c-6.6-9.7-21.6-13.8-32.6-8.7c-1.1,0.5-2.2,1.6-2.7,2.7C164.4,471.9,167.2,479,173.8,482z M241.3,417c-14.3-2.7-28.1-3.7-41.9-1.8
		c-6.3,0.9-11.2,5.1-14.8,11.3c1.5,0,2.2,0.1,3,0c14.5-1.3,29.1-2.6,43.6-3.7c1.9-0.1,3.8,0.7,6.4,1.3
		C238.5,422.4,239.7,420.1,241.3,417z M222.2,482.1c-13.6-3.8-27-1.7-40.4,1.3C195.4,486.3,208.9,485.7,222.2,482.1z"/>
	<path class="st0" d="M395.5,209.7c1.1,0.9,2.1,1.7,3.3,2.7c-0.5,0.6-0.9,1.1-1.4,1.5c-16.7,13.2-33.6,26.3-50.1,39.8
		c-8.3,6.8-15.7,14.8-23.9,21.9c-3.6,3.1-7.8,5.5-12.1,7.6c-3.2,1.5-3.4,1-5.5-3.2C335.6,256.6,365.5,233.2,395.5,209.7z M332,262
		c-7.8,6.2-15.6,12.3-23.3,18.5c0.3,0.4,0.6,0.7,0.9,1.1C320.3,279.1,325.5,269.6,332,262z"/>
	<path class="st0" d="M186.9,342c-0.7,0.4-1.4,0.7-2.1,1.1c-10.1,0.9-20.1,1.7-30.6,2.6c-0.1-1.9-0.3-3.5-0.4-5.4
		c4.4-1.3,8.7-2.5,13-3.7c-0.2-0.3-0.4-0.5-0.7-0.8c0.9-1,1.6-2.3,2.7-2.9c4.7-2.5,10.7-3.8,14.2-7.4c10.2-10.8,22.7-12.9,36.7-12.3
		c0.1,0.7,0.3,1.4,0.4,2.2c0.1,0.8,0.1,1.6,0.2,3c-4.4,0.6-8.6,1.2-12.8,1.6c-8.9,1-12.8,4.4-15.6,13
		C190.7,336.2,188.6,339,186.9,342z M217.7,316.6c-0.1-0.5-0.1-1.1-0.2-1.6c-9.7,1-19.8-0.3-28,7.7c-4.9,4.8-10.8,8.5-16.5,12.9
		c-0.1-0.3,0.2,0.4,0.5,1.2c-5.9,1.7-11.7,3.4-17.5,5.1c0.1,0.6,0.3,1.1,0.4,1.7c7.6-0.7,15.1-1.6,22.7-2c6.3-0.3,9.4-3.5,10.9-9.5
		c2.3-9.1,7.6-13.1,17-14.1C210.6,317.6,214.2,317.1,217.7,316.6z"/>
	<path class="st0" d="M194,376.9c6.4-3.6,12.8-7.2,19.6-11.1c1.2,2.3,2.2,4.3,3.5,6.9c-8.3,2.5-15.9,5.6-20.1,13.3
		c-11.5-4-14.4-13-6.9-21.8c3.8-4.5,8.5-8.2,12.8-12.2c0.5,0.4,1,0.9,1.5,1.3c-3.4,3.9-6.7,7.8-10.2,11.6
		C190.1,369.5,190,371.7,194,376.9z M188.2,371.8c-0.8,6.1,2.9,9.1,6.4,11c6.7-4.4,12.8-8.3,18.8-12.3c-0.2-0.5-0.4-1.1-0.5-1.6
		c-6.8,2.9-12.8,7.6-20,10.7C191.3,377,189.8,374.5,188.2,371.8z"/>
	<path class="st0" d="M483.6,139.1c1,1.2,1.9,2.4,2.9,3.7c-12.6,10.1-25.1,20.1-37.8,30.3c-0.9-1.5-1.7-2.7-2.7-4.2
		C458.7,158.9,471,149.1,483.6,139.1z"/>
	<path class="st0" d="M238.3,374.9c1-2.7,1.8-4.6,2.7-6.9c1.6,0.4,3,0.8,4.4,1.2c-0.3,10.1-2.6,12.7-12.8,15
		c-4.3-15.7-4.4-18.6-0.8-21.2C233.9,366.7,235.9,370.4,238.3,374.9z M238.4,380.2c-2-3.8-3.8-7.4-5.6-10.9
		c-0.4,0.1-0.7,0.3-1.1,0.4c0.8,3.9,1.6,7.8,2.4,12C235.7,381.2,236.8,380.8,238.4,380.2z"/>
	<path class="st0" d="M324.7,293.8c-0.8-2.2-1.5-3.9-2.3-6c8.7-5.5,17.4-11,26.2-16.6c0.8,1.2,1.6,2.2,2.5,3.6
		c-4.4,2.8-8.3,5.7-12.7,7.9c-3.4,1.7-5.7,3.4-4.1,7.9C331.1,291.7,328.2,292.7,324.7,293.8z M331.6,284.3c-2.7,1.9-4.7,3.3-7.1,5.1
		C330,291.5,331.7,290.2,331.6,284.3z"/>
	<path class="st0" d="M277,357.8c-12,4.6-20.9,1.5-35.8-11.3c0.2-0.5,0.3-0.9,0.5-1.4C253.1,349.2,264.4,353.3,277,357.8z
		 M252.4,352.1c5.5,4,10.3,6.3,16.2,5.4c-4.5-2.1-9.1-3.8-13.8-5.5C254.4,351.9,253.9,352.1,252.4,352.1z"/>
	<path class="st0" d="M236.5,343.6c-3.2-1.6-6.1-3.1-9.7-4.9c0.4,2.8,0.7,5,1,7.2c-4.1,0.7-4.6-0.1-11-16.5
		C226,325.1,232.3,333.2,236.5,343.6z M221.3,329.3c-0.5,0.6-1.1,1.1-1.6,1.7c1.5,3.2,3,6.5,4.4,9.7c0.2-0.1,0.4-0.2,0.6-0.2
		c-0.2-1.6-0.3-3.2-0.5-5.1c2.4,0.9,4.4,1.6,6.4,2.4c0.3-0.5,0.6-1,0.8-1.4C228.1,334,224.7,331.7,221.3,329.3z"/>
	<path class="st0" d="M228.1,322.2c8,0,15.7,0,23.3,0c0.7,4.5-3.2,7.9-10.5,9.6C235.3,332.9,230.6,329.5,228.1,322.2z M231.2,324.3
		c5.2,7.4,10.5,7.3,18.7,0C243.6,324.3,237.7,324.3,231.2,324.3z"/>
	<path class="st0" d="M170.5,553.1c4,1,8,2.1,12.1,3.1c3.2,1.2,6.3,2.4,9.5,3.5c1.7,0.6,3.5,0.9,5.3,1.4c-0.1,0.4,0,0.9-0.1,1
		c-7.7,6.2-13.3,13.9-18.2,22.6c-3.7,6.6-10.1,10.7-19.2,12.5c3.9-4.5,7-8.1,10-11.6c-0.2-0.2-0.4-0.5-0.6-0.7
		c-3.8,2.4-7.7,4.9-11.5,7.3c-0.3-0.2-0.6-0.4-0.8-0.5c1.3-2.7,2.5-5.4,4.2-8.9c-4.2,0.9-7.8,1.6-12.8,2.7c3.5-4,6.2-6.9,8.6-9.6
		c-2.3-0.3-4.5-0.7-8-1.2c5.9-5,10.4-8.9,14.9-12.8c-0.2-0.4-0.5-0.8-0.7-1.2c-5.1,3.2-10.3,6.3-15.7,9.7
		C150,557.5,157.9,551.8,170.5,553.1z M193.5,563.1c-9.5-2.9-17.3-5.4-25.3-7.7c-6.7-1.9-10.6,0.2-13.9,7.5c3.3-1.9,6.2-3.6,9.2-5.4
		c1.4,1.8,2.6,3.2,4.4,5.5c-1.8,1.1-3.4,2.1-5,3.1c0.2,0.2,0.4,0.4,0.5,0.6c1-0.3,2.1-0.6,3.1-0.9c0.4,0.3,0.7,0.5,1.1,0.8
		c-0.9,1.6-1.6,3.4-2.7,4.9c-1.2,1.6-2.8,2.9-4.1,4.3c-1.3,1.5-2.6,3-4.4,5c3.5-0.7,6-1.2,9.1-1.8c-0.8,2.3-1.5,4-2.1,5.7
		c0.4,0.4,0.7,0.7,1.1,1.1C173.9,578.6,183.3,571.2,193.5,563.1z"/>
	<path class="st0" d="M73.9,480.7c-3-15.5-5.9-30.9-8.9-46.4c-0.3-1.3-0.5-2.6-0.8-3.9c-0.9-3.5,0.6-4.6,4.5-4
		c2.4,13,4.9,26.2,7.4,39.3c0.7,3.7,1.6,7.5,1.8,11.3c0.1,1.4-1.2,2.9-1.9,4.4C75.3,481.2,74.6,480.9,73.9,480.7z"/>
	<path class="st0" d="M461.1,553c13.4-6.1,25.6-2.5,38.1,5C484.8,566.1,473.2,557.3,461.1,553z M467.7,553.1
		c8.2,3.6,16.2,8.7,26.7,4.8C485.5,552.7,477,550.6,467.7,553.1z"/>
	<path class="st0" d="M262.8,564.9c2.1,8.2,4.2,16.1,6.3,24c1,3.7-2,4.5-4.3,5.6c-3.2,1.6-5.7,0.3-7.7-2.4
		C251.3,584.4,253.9,570.9,262.8,564.9z M261.7,568.8c-5.9,6.1-6.9,17.1-2.3,22.3c0.9,1,3.4,1.7,4.5,1.2c1.4-0.6,3.1-2.9,2.8-4.1
		C265.4,581.7,263.5,575.4,261.7,568.8z"/>
	<path class="st0" d="M174.2,625.4c-1.2,7.2-2.3,14.5-3.6,22.2c-4.2-2.2-7.6-5-7.5-9.4C163.4,631.7,169.1,628.8,174.2,625.4z
		 M169.3,643.4c0.7-4.3,1.3-8.5,2.1-13.4C164.4,634.6,163.1,640.4,169.3,643.4z"/>
	<path class="st0" d="M623.6,616.6c-1.4,2.3-2.3,3.8-3.4,5.7c-9.7-5.4-19.1-10.5-28.4-15.9c-0.9-0.5-1-2.6-1.4-3.9
		c0.5-0.3,0.9-0.6,1.4-0.9C602.1,606.5,612.5,611.4,623.6,616.6z"/>
	<path class="st0" d="M80.3,173.8c3.6,6.7,5.5,7.6,12.1,4.4c4.9-2.3,9.7-5.2,14.1-8.4c10.9-7.9,21.7-16,32.4-24.2
		c4-3.1,8.1-4.4,13.4-4c5.1,0.4,10.3-0.3,15.3-1.1c11.8-1.8,22.8-0.3,34.3,6.7c-5.6,0.8-10,1.5-14.9,2.2c1.4,2,2.5,3.7,3.7,5.4
		c-9.5-7.1-19.6-11.5-31.8-7.9c-11.1,3.3-19.8,10.2-29.3,18.4c6.9,0.7,12.7,1.3,18.4,1.8c0.1,0.3,0.2,0.5,0.2,0.8
		c-16.2,4.7-32.4,9.4-48.6,14.1c-0.2,0.5-0.5,0.9-0.7,1.4c1.4,0.9,2.7,2.4,4.1,2.4c5.4,0.3,10.8,0.1,16.1,0.1
		c0.1,0.4,0.1,0.9,0.2,1.3c-11.1,2.9-22.3,5.8-33.4,8.7c-0.2,0.5-0.3,1-0.5,1.5c2.6,1.1,5.1,2.2,8.1,3.4c-0.8,0.6-1.9,1.5-3,2
		c-9.4,4.2-18.7,8.7-28.2,12.4c-2.5,1-6.1,0.2-8.8-0.9c-2.5-1-3-3.4-1.5-6.3c5-9.3,11-17.3,21.1-21.7c1.8-0.8,3.2-3.1,4.3-5
		C78.5,179.2,79.2,176.6,80.3,173.8z"/>
	<path class="st0" d="M220.2,591c-1-1.9-2-3.6-3.3-6c-8.6,10.4-16.4,19.9-24.2,29.3c-0.2-0.1-0.4-0.2-0.6-0.3
		c0.4-1.1,0.6-2.3,1.1-3.4c4.5-9.8,8.9-19.7,13.8-29.3c5.6-10.9,14.4-17.9,26.7-20.6c10.7-2.4,17-10.2,20.4-20.1
		c4.9-14.1,9.2-28.5,13.8-42.7c0.3-1.1,0.8-2.1,1.5-3.9c1.5,5.2,2.9,9.5,4,13.9c1.9,7.9,6.1,14.5,12,19.7c6.4,5.6,8.4,11.4,3.1,18.5
		c-0.2-0.4-0.5-1-0.9-1.9c-1.6,2.2-3.2,4.3-5.3,7.1c0-3,0-5.1,0-8.3c-2.8,3.4-5,6-7.4,8.9c-0.7-1.1-1.2-1.9-1.9-3
		c-1.2,0.6-2.4,1.2-4.6,2.2c1.3-4.5,2.6-8.1,3.3-11.8c0.3-1.5,0-4.3-0.8-4.6c-1.5-0.6-3.8-0.3-5.2,0.5c-2.2,1.4-4.5,3.2-5.7,5.5
		c-8,14.4-20.5,25.2-30.4,38.1C226.3,583.4,223,587.5,220.2,591z"/>
	<path class="st0" d="M101.6,219.2c2-4.1,3.9-8.2,6.1-12.9c-3.5-1.2-7.3-2.6-11.4-4.1c0.9-1.1,1.8-2.1,3.2-3.7c-3-0.3-5.5-0.6-8-0.9
		c-0.1-0.3-0.1-0.5-0.2-0.8c6-1.6,12-3.2,18-4.7c3.2-0.8,6.4-1.7,9.7-2.3c3.3-0.6,4.1-2.4,2.6-5.6c-5.6,0-11.3,0-17.1,0
		c-0.1-0.3-0.2-0.6-0.2-0.8c1.2-0.4,2.4-1,3.7-1.3c13.6-3.9,27.2-7.8,40.7-11.9c1.5-0.4,2.6-1.9,3.9-3c-1.4-0.7-2.7-1.9-4.2-2.1
		c-3.9-0.6-7.8-0.9-13-1.4c11.2-9.4,22-17.5,36.6-15.6c7.9,1.1,14.3,6.1,19.3,12.4c0.9,1.1,1.3,3.2,1,4.6c-0.6,2.5-1.8,4.9-2.8,7.4
		c-2.1,4.9-4.5,7.5-10.8,5c-6.3-2.5-12.8,0.1-18.7,2.9c-3.6,1.7-7.1,3.5-11.8,5.8c4.3-8,10.5-11.5,17.2-14.4
		c6.5-2.8,13-5.5,20.7-8.8c-6.8-3.2-12.3-3.4-17.1-0.5c-8.5,5.2-16.5,11.1-24.6,16.9c-3,2.1-5.6,4.7-8.2,7c-1.4-1.5-2.7-2.8-4.9-5.2
		c-5.7,8.9-11.1,16.8-15.8,25.1C112,212.1,108.1,216.8,101.6,219.2z"/>
	<path class="st0" d="M111,224.7c0-0.8,0-2.4,0-4.3c-9.7,4-17,14.6-29.8,8.7c6.4-5.3,12.8-10.5,19.2-15.8c0.3,0.2,0.5,0.3,0.8,0.5
		c-1.7,3.9-3.4,7.7-5.1,11.7c7.3-1.1,17.1-9.9,21.2-17.7c3.9-7.4,8.7-14.4,13.1-21.6c0.4,0.2,0.8,0.4,1.3,0.5c0,2,0,3.9,0,6.6
		c6.5-5.6,12.6-10.8,19.4-16.5c-2.9,4.6-5.2,8.4-8.3,13.2c14.3-3.1,25-16.4,40.8-8.3c-3.4,5.6-6.7,11.1-10,16.6
		c-5.3-6-10.9-6.1-21.8,0c3.4,1.2,6.3,2.1,9.2,3.1c2.8,1,5.6,2,9,3.2c-9.9,13.6-15.7,29.3-27.5,41c-0.5-0.4-1.1-0.7-1.6-1.1
		c7.9-11.9,15.8-23.9,23.7-35.8c-9.6-14.5-31-11.1-44.5,7.7c7.9-4.6,14.9-9.4,23.7-8.5c2.5,0.3,5,1,6.9,1.5
		C137.5,214.4,124.3,219.6,111,224.7z"/>
	<path class="st0" d="M578.4,525.1c6.8,2.2,13.1,4.7,17.1,11.1c6.1,9.9,12.3,19.8,18.3,29.7c3.9,6.4,6.6,7.8,14,5.7
		c-6.9-18.9-15.7-36.6-27.1-53.1c0.3-0.2,0.7-0.4,1-0.7c1.4,1.9,3,3.7,4.3,5.7c5.8,9.3,11.5,18.7,17.1,28.1
		c3.3,5.6,5.8,11.6,9.6,16.9c3.7,5.2,8.5,9.6,12.9,14.5c-8.9-1.8-17.8-3.7-26.7-5.4c-7-1.3-14.2-2.1-21.2-3.5
		c-1.5-0.3-3.4-2.1-3.7-3.5c-2.9-15.6-7.1-30.8-15.8-44.4C578.1,526.1,578.3,525.7,578.4,525.1z"/>
	<path class="st0" d="M78.8,347.1c1.1,3.1,1.9,6.3,3.2,9.3c1.8,4.3,0.6,7-4.3,8.2c-0.5-2-0.5-4.3-1.5-6c-1.9-3.1-4.4-5.9-6.4-8.9
		c-1.4-2-3.7-4.6-3.3-6.4c1.9-8.2,4.6-16.2,7-24.2c0.4,0.1,0.9,0.2,1.3,0.2c0,6.7,0,13.3,0,20.4c6.2-1.5,11.9-2.8,17.6-4.2
		c4.2-1,7.6-0.1,11,2.9c9.4,8.3,20.2,10.2,32.1,5.9c-1.2,7.5-3.5,9.1-10.5,9.1c-5.8-0.1-11.6,0.3-17.4,1
		C97.2,355.5,87.7,354.2,78.8,347.1z"/>
	<path class="st0" d="M242.5,494.5c3,5,5.6,9.3,9.1,15.3c-6.3,1-11.1,2.2-16.1,2.5c-4.1,0.3-8.3-0.1-12.5-0.4
		c-10.2-0.6-19.4,2.2-28,7.4c-2.1,1.3-4.3,2.5-6.4,3.8c-6.6,4-8.5,3.6-13-2.5c-3.4-4.6-2.5-8.3,2.6-12.9c5.3-4.9,10.7-7,18.3-4.8
		c6.7,1.9,14.1,2,21.2,2.1C226.8,505.2,235,502.1,242.5,494.5z"/>
	<path class="st0" d="M32.7,233.9c15.2,3.3,30.4,6.7,45.5,10c0.3-0.6,0.6-1.1,0.9-1.7c-1.3-0.9-2.4-2.1-3.8-2.6
		c-11.3-4.2-19.4-11.9-25-23c7.1,6.5,13.1,1.9,19.5-1c-3.4,3.7-6.8,7.4-10.7,11.7c7.4,1.6,14.9,3.5,22.4,4.8c7.5,1.3,15.1,2,22.5,3
		c1.2,10.1-7.9,16.3-22.6,15.7c0-1.1,0-2.3,0-3.8C64,246.4,47,245,32.7,233.9z"/>
	<path class="st0" d="M307.6,310c-7,6.4-7.8,13.9-7.7,21.9c0.1,2.4-0.9,4.8-1.8,7.1c-4.5,11.9-9.2,23.8-13.8,35.6
		c-0.3,0.7-0.5,1.5-0.6,1.7c-4.1-12,4.2-21,9.2-31.7c-7.2,0-13.8,0-20.9,0c0.1-2.5,0.2-4.3,0.4-7.5c1.6,2,2.4,3,3.2,4
		c10.1,1.5,24.1-13.1,22.9-24.2c-3.5,0-7.1,0.1-10.7,0c-3.6-0.2-7.1-0.6-10.7-1.7c5-0.4,10.1-0.5,15.1-1.3
		C297,313.1,301.7,311.5,307.6,310z"/>
	<path class="st0" d="M35,231.2c1.5-10.1,2.9-19.4,4.3-28.7c0.4-0.2,0.8-0.3,1.2-0.5c4,13.6,11.1,25.1,21.4,35.1
		C53.1,235.2,44.3,233.3,35,231.2z"/>
	<path class="st0" d="M102.8,207.6c-12.9,2.3-22.4,8.5-26.9,21.2c-4-1.1-7.8-2.1-11.6-3.1C68.2,217.2,94.6,204.5,102.8,207.6z"/>
	<path class="st0" d="M9.8,324.4c3.2-5.8,6.8-10.8,13.5-11.4c3.8-0.3,8.7-4.1,11.7,2.1c1.4-0.4,2.8-0.8,4.2-1.1
		c0.2,0.3,0.4,0.6,0.5,0.9c-5.3,3.9-10.6,7.8-17,12.5c1.4-3.3,2.3-5.5,3.9-9.2C20.5,320.4,15.5,322.3,9.8,324.4z"/>
	<path class="st0" d="M125.3,356.1c-13.3,1.7-26.7,3.3-40.2,5c-0.4-1.9-1.2-5.1-2.1-9.1C96.8,360.4,111.3,354.6,125.3,356.1z"/>
	<path class="st0" d="M193.9,302.1c20.6,0,41.9,2.8,62.7,9.5C235.3,308.4,214.1,305.2,193.9,302.1z"/>
	<path class="st0" d="M55.1,365.3c-6.3-0.6-11.7-1.1-17-1.6c0.7-2.3,0.7-2.3,10.8-0.8c0-5.4,0-10.7,0-16.1c0.6-0.1,1.2-0.2,1.7-0.3
		C53.1,352.4,53.2,358.9,55.1,365.3z"/>
	<path class="st0" d="M202.8,146.4c9.1-14.5,18.3-28.9,27.4-43.4c0.4,0.2,0.8,0.5,1.1,0.7c-8.9,14.6-17.8,29.2-26.8,43.8
		C204,147.2,203.4,146.8,202.8,146.4z"/>
	<path class="st0" d="M118.6,235.5c-0.6-12.2,9.8-13.4,18-17C130.6,224.2,124.5,229.9,118.6,235.5z"/>
	<path class="st0" d="M70.2,392.9c-4.2,10.6-5.3,22.7-15.4,31.5c2.7-6,5.2-11.1,7.4-16.3c2.2-5.3,4.2-10.6,6.3-16
		C69.1,392.5,69.7,392.7,70.2,392.9z"/>
	<path class="st0" d="M69.3,376.6c-1.9,7.2-3.8,14.2-5.9,21.8C58.8,390.7,60.4,385.4,69.3,376.6z"/>
	<path class="st0" d="M80.7,226.4c2.8-8.4,9.1-12.7,17.6-14.4C92.4,216.8,86.5,221.6,80.7,226.4z"/>
	<path class="st0" d="M157.6,172.9c5.9-5.2,12-10.5,21.1-8.9C171.6,167,164.6,169.9,157.6,172.9z"/>
	<path class="st0" d="M107.3,295.1c-1.3-10.1,8.7-11.3,12.4-17.3c0.4,0.3,0.8,0.6,1.3,0.9c-2.2,2.6-4.4,5.2-6.6,7.8
		C112,289.3,109.8,292.1,107.3,295.1z"/>
	<path class="st0" d="M170.6,202.3c-4.4-1.4-8.2-2.7-12.5-4.1C166.3,194,169.7,195,170.6,202.3z"/>
	<path class="st0" d="M75.7,316.1c2.1-2.6,3.8-4.8,6.4-8.1c0.4,4.8,0.7,8.3,1.2,13C80.4,319.1,78.4,317.8,75.7,316.1z"/>
	<path class="st0" d="M50.7,420.4c3.2-6.9,6-12.9,8.9-18.9c0.6,0.3,1.2,0.6,1.7,1C59.3,408.9,57.3,415.4,50.7,420.4z"/>
	<path class="st0" d="M121.7,271.7c0.9,2.9-0.2,4.1-3.6,4.2c-5.4,0.2-10.7,1-16.3,1C108.4,275.2,115,273.5,121.7,271.7z"/>
	<path class="st0" d="M196.7,159.1c-1.8-2.4-3.7-4.9-6.1-8.1c4.1-0.5,7.5-0.9,10.9-1.3c0,0.4,0.1,0.8,0.1,1.1c-2.1,0-4.1,0-6.9,0
		c1.2,2.9,2.1,5.2,3.1,7.5C197.4,158.6,197,158.9,196.7,159.1z"/>
	<path class="st0" d="M71.9,373.3c-0.3-3.8-0.6-7.6-0.9-10.8C76.4,367.3,76.6,369,71.9,373.3z"/>
	<path class="st0" d="M9.9,319.5c-1.7,3.9-3.3,7.9-5,11.8c-0.6-0.3-1.2-0.5-1.8-0.8c1.8-3.9,3.5-7.9,5.3-11.8
		C8.9,319,9.4,319.2,9.9,319.5z"/>
	<path class="st0" d="M119.1,311c6.2-1.5,12.4-3.1,18.5-4.6c0.1,0.4,0.2,0.9,0.3,1.3c-6.2,1.5-12.4,3.1-18.5,4.6
		C119.3,311.8,119.2,311.4,119.1,311z"/>
	<path class="st0" d="M194,646.2c25.1-18.6,47.9-39,80.9-43.6c-2.7,10.2-5.1,19.6-7.7,28.9c-0.2,0.7-1,1.4-1.7,1.8
		c-7.5,3.9-13.1,10-19,15.8c-5.5,5.5-12.9,7.1-20.4,5.3C215.7,652,205.5,649.2,194,646.2z"/>
	<path class="st0" d="M131.2,640.1c-1.9-5.6-4.2-10.4-5.1-15.3c-0.4-2.5,1.6-5.5,2.6-8.6c-1.8-0.1-4.4-0.2-7.6-0.4
		c1.5-2.3,2.8-4.3,4.2-6.5c-2.4-1.3-4.6-2.4-6.9-3.7c1-1.2,1.8-2.2,2.8-3.4c-2.3-1.3-4.4-2.5-7.3-4.1c1.8-1.4,3.3-2.6,5.3-4.2
		c-4.1-1.6-7.5-2.9-11.9-4.6c2.5-1.9,4.3-3.3,6.6-5c-2.7-0.9-5.1-1.7-7.9-2.6c1.6-3.2,3.1-6.2,4.9-9.7c-2.6,0-4.7,0-7.1,0
		c0.8-2.1,1.4-3.8,1.5-4.2c-2.4-2.9-4.9-4.9-6.3-7.6c-7.9-15.8-16-31.5-19.5-49c-1-5.2-1.7-10.4-2.7-16.4
		c6.9,2.5,11.8,6.4,13.4,12.6c8,31.8,25.3,59.7,36.7,89.9C132.3,611.4,133.8,623.7,131.2,640.1z"/>
	<path class="st0" d="M366.3,593.4c-0.9,6.1-1.4,12.4-2.8,18.4c-2.9,13-3.5,25.6,3.4,37.6c0.6,1.1,0.8,2.4,0.6,4
		c-1.4-2.5-2.8-5.2-4.4-7.6c-1.7-2.6-3.6-5.1-5.8-8.1c-4.6,3.8-11.4,3.8-14.3,10.1c-2.2-2.4-4.5-4.9-7.3-8
		c5.9-2.4,11.7-4.7,17.7-7.1c-0.4-1.3-0.8-2.5-1.3-4.3c2.1,0.6,3.9,1.1,6.1,1.8c2.4-12.4,4.8-24.7,7.2-37
		C365.6,593.3,365.9,593.3,366.3,593.4z"/>
	<path class="st0" d="M90.5,638.8c-6.6-0.7-13.1-1.3-20.9-2.1c4.1-3.3,7.5-6.1,11.1-9c3.6,3.4,7,6.7,10.5,9.9
		C90.9,638,90.7,638.4,90.5,638.8z"/>
	<path class="st0" d="M189.1,650.6c12.3,2.9,24.6,5.7,36.9,8.6c-0.1,0.4-0.2,0.7-0.3,1.1c-12.3-2.8-24.6-5.6-36.9-8.4
		C188.9,651.5,189,651,189.1,650.6z"/>
	<path class="st0" d="M307.8,602c5.1,8.5,1.3,13.2-9.7,13.9c1.2-3,1.2-3,9.1-3.1C307.4,609.5,307.6,606.3,307.8,602z"/>
	<path class="st0" d="M301.3,622.4c-3.3,1.2-6.6,2.4-9.9,3.7c-0.2-0.2-0.5-0.5-0.7-0.7c1.7-2.5,3.3-4.9,4.7-6.9
		C297.4,619.7,299.1,620.9,301.3,622.4z"/>
	<path class="st0" d="M334.7,616.5c1.8-2.4,3.3-4.3,4.6-6c1.6,2.8,3.2,5.6,4.9,8.7C341.3,618.4,338.3,617.5,334.7,616.5z"/>
	<path class="st0" d="M364.9,544.9c0.1-1.3,0.1-2.6,0.3-3.9c1.2-6.8,2.5-13.6,4.8-20.2c-1.4,8.1-2.8,16.1-4.2,24.2
		C365.5,545,365.2,544.9,364.9,544.9z"/>
	<path class="st0" d="M259.8,645.7c-3.7,3.1-7.5,6.2-11.2,9.4c-0.4-0.4-0.7-0.9-1.1-1.3c3.8-3,7.6-6.1,11.4-9.1
		C259.2,645,259.5,645.4,259.8,645.7z"/>
	<path class="st0" d="M31.8,257.2c-8.9,3.1-17.3,6-25.9,8.9C11.9,251.3,22.3,247.6,31.8,257.2z M27.6,256.3
		c-6.7-4.6-12.3-2.5-16.3,5.6C16.7,260.1,21.8,258.3,27.6,256.3z"/>
	<path class="st0" d="M181.4,429.4c15.7-1.4,31.4-2.8,47.1-4.2c0.1,0.2,0.2,0.5,0.3,0.7c-2.4,1.2-4.7,2.5-7.3,3.8
		c0.9,1.7,1.7,3.3,2.6,5.2c9.3-3.6,17.2-8.2,19.6-19.3c-3-1-6.2-2-9.4-3c0-0.2,0.1-0.4,0.1-0.6c2.4,0.1,5-0.2,7.3,0.4
		c3.7,1.1,6.3,3.6,4.7,7.9c-5.1,13.3-3.7,26.8-1.9,40.4c0.2,1.5,0.4,3,0.5,4.5c0,0.4-0.2,0.8-0.3,1.7c-3.1-4.9-6-9.4-9.8-15.2
		c-3.7,12.4-2.3,22.8,3.1,33.5c-6.6,2.3-13,5.2-19.7,6.7c-2.5,0.6-5.7-2-8.3-4.2c5.7-1,11.3-1.9,17.7-3c-3.8-5.1-8.1-7.8-14.1-7.2
		c-4,0.4-6.4-0.4-8.5-4.5c-5-9.6-13.4-14.1-24.3-13.3c-16.3,1.2-16.3,1.2-16.4,17.8c-2.1-0.8-4-1.6-6.9-2.7
		c6.2-15.8,12-31.3,18.6-46.5c3-6.9,8.8-11.9,15.9-14.2c-3.9,4.6-7.8,9.3-11.8,14C180.6,428.5,181,428.9,181.4,429.4z"/>
	<path class="st0" d="M173.8,482c-6.6-3-9.4-10.1-6.7-15.9c0.5-1.1,1.6-2.2,2.7-2.7c11-5.1,26-1,32.6,8.7c0.4,0.7,0.7,1.4,1.4,2.7
		c-8,0.7-15.5,1.6-23,2.1C177.3,477.2,174.4,477.8,173.8,482z"/>
	<path class="st0" d="M241.3,417c-1.6,3.1-2.8,5.4-3.7,7.1c-2.5-0.5-4.5-1.4-6.4-1.3c-14.6,1.1-29.1,2.5-43.6,3.7
		c-0.8,0.1-1.6,0-3,0c3.6-6.2,8.5-10.4,14.8-11.3C213.2,413.3,227,414.2,241.3,417z"/>
	<path class="st0" d="M222.2,482.1c-13.4,3.6-26.8,4.2-40.4,1.3C195.2,480.4,208.6,478.3,222.2,482.1z"/>
	<path class="st0" d="M332,262c-6.5,7.6-11.7,17.1-22.5,19.5c-0.3-0.4-0.6-0.7-0.9-1.1C316.5,274.3,324.2,268.2,332,262z"/>
	<path class="st0" d="M217.7,316.6c-3.6,0.5-7.1,1-10.7,1.4c-9.4,0.9-14.7,5-17,14.1c-1.5,5.9-4.5,9.1-10.9,9.5
		c-7.6,0.4-15.1,1.3-22.7,2c-0.1-0.6-0.3-1.1-0.4-1.7c5.8-1.7,11.6-3.4,17.5-5.1c-0.3-0.8-0.6-1.5-0.5-1.2
		c5.7-4.4,11.6-8.1,16.5-12.9c8.2-8,18.3-6.7,28-7.7C217.6,315.5,217.7,316.1,217.7,316.6z"/>
	<path class="st0" d="M188.2,371.8c1.6,2.7,3.1,5.2,4.7,7.8c7.2-3.1,13.3-7.8,20-10.7c0.2,0.5,0.4,1.1,0.5,1.6
		c-6.1,3.9-12.1,7.9-18.8,12.3C191.1,380.8,187.4,377.9,188.2,371.8z"/>
	<path class="st0" d="M238.4,380.2c-1.6,0.6-2.7,0.9-4.3,1.5c-0.8-4.1-1.6-8.1-2.4-12c0.4-0.1,0.7-0.3,1.1-0.4
		C234.6,372.9,236.4,376.4,238.4,380.2z"/>
	<path class="st0" d="M331.6,284.3c0.1,5.9-1.6,7.1-7.1,5.1C326.9,287.7,328.9,286.3,331.6,284.3z"/>
	<path class="st0" d="M252.4,352.1c1.5-0.1,2-0.2,2.4-0.1c4.7,1.7,9.3,3.4,13.8,5.5C262.7,358.4,257.9,356.2,252.4,352.1z"/>
	<path class="st0" d="M221.3,329.3c3.4,2.3,6.8,4.7,10.1,7c-0.3,0.5-0.6,1-0.8,1.4c-2-0.7-4-1.5-6.4-2.4c0.2,2,0.4,3.6,0.5,5.1
		c-0.2,0.1-0.4,0.2-0.6,0.2c-1.5-3.2-3-6.5-4.4-9.7C220.2,330.5,220.8,329.9,221.3,329.3z"/>
	<path class="st0" d="M231.2,324.3c6.5,0,12.5,0,18.7,0C241.7,331.6,236.4,331.7,231.2,324.3z"/>
	<path class="st0" d="M193.5,563.1c-10.2,8.1-19.6,15.5-29,22.9c-0.4-0.4-0.7-0.7-1.1-1.1c0.6-1.7,1.3-3.5,2.1-5.7
		c-3.1,0.6-5.7,1.1-9.1,1.8c1.8-2,3-3.6,4.4-5c1.4-1.5,2.9-2.8,4.1-4.3c1.1-1.5,1.8-3.3,2.7-4.9c-0.4-0.3-0.7-0.5-1.1-0.8
		c-1,0.3-2.1,0.6-3.1,0.9c-0.2-0.2-0.4-0.4-0.5-0.6c1.6-1,3.2-2,5-3.1c-1.8-2.3-3-3.7-4.4-5.5c-3,1.8-5.9,3.5-9.2,5.4
		c3.3-7.3,7.2-9.4,13.9-7.5C176.2,557.6,184,560.2,193.5,563.1z"/>
	<path class="st0" d="M467.7,553.1c9.4-2.4,17.9-0.3,26.7,4.8C483.9,561.7,475.9,556.7,467.7,553.1z"/>
	<path class="st0" d="M261.7,568.8c1.8,6.7,3.7,13,5.1,19.4c0.3,1.2-1.5,3.5-2.8,4.1c-1.1,0.5-3.6-0.2-4.5-1.2
		C254.8,585.9,255.8,574.8,261.7,568.8z"/>
	<path class="st0" d="M169.3,643.4c-6.1-3-4.8-8.8,2.1-13.4C170.6,634.9,169.9,639.1,169.3,643.4z"/>
	<path class="st0" d="M27.6,256.3c-5.8,2-10.9,3.8-16.3,5.6C15.4,253.8,20.9,251.7,27.6,256.3z"/>
</g>
</svg>
